<?xml version="1.0" encoding="utf-8"?>
<!-- Generator: Adobe Illustrator 27.0.1, SVG Export Plug-In . SVG Version: 6.00 Build 0)  -->
<svg version="1.1" xmlns="http://www.w3.org/2000/svg" xmlns:xlink="http://www.w3.org/1999/xlink" x="0px" y="0px"
	 viewBox="0 0 1920 1080" style="enable-background:new 0 0 1920 1080;" xml:space="preserve">
<style type="text/css">
	.st0{fill:none;}
	.st1{fill:#D7BEC3;}
	.st2{opacity:0;fill:#FEFEFE;}
	.st3{display:none;}
	.st4{display:inline;fill:#6DA469;}
	.st5{display:inline;fill:#6DA569;}
	.st6{display:inline;fill:#6EA56A;}
	.st7{display:inline;fill:#6DA56A;}
	.st8{display:inline;fill:#6FA66B;}
	.st9{fill:#6C688B;}
	.st10{fill:url(#Nytt_mönster);}
	.st11{opacity:0.44;}
</style>
<pattern  width="40" height="211" patternUnits="userSpaceOnUse" id="Nytt_mönster" viewBox="0 -211 40 211" style="overflow:visible;">
	<g>
		<rect x="0" y="-211" class="st0" width="40" height="211"/>
		<g>
			<rect x="32" y="-211" class="st1" width="4" height="211"/>
			<rect x="36" y="-211" class="st2" width="4" height="211"/>
		</g>
		<g>
			<rect x="24" y="-211" class="st1" width="4" height="211"/>
			<rect x="28" y="-211" class="st2" width="4" height="211"/>
		</g>
		<g>
			<rect x="16" y="-211" class="st1" width="4" height="211"/>
			<rect x="20" y="-211" class="st2" width="4" height="211"/>
		</g>
		<g>
			<rect x="8" y="-211" class="st1" width="4" height="211"/>
			<rect x="12" y="-211" class="st2" width="4" height="211"/>
		</g>
		<g>
			<rect x="0" y="-211" class="st1" width="4" height="211"/>
			<rect x="4" y="-211" class="st2" width="4" height="211"/>
		</g>
	</g>
</pattern>
<g id="Lager_1" class="st3">
	<path class="st4" d="M1341.4,624.2c-2.9-3.7-5-7.4-8-9.8c-3.6-3-7.3-0.5-8.5,4c-2,7.7,0.6,13.4,5.8,18.8c2.6,2.7,5,6.1,6.1,9.7
		c1.3,4.5,0.3,9.2-5.1,12.2c-6.2-6.1-13.1-12.2-16.6-21c-5.4-13.5-10.2-27.4-16.4-40.5c-1.8-3.8-2.9-10.2-9.3-10.9
		c-0.4,0-1.1-0.7-1-1c0.9-6.1-3.9-7.4-7.8-9.7c-4.7-2.8-9.9-2.4-14.7,0.8c-11.5,7.7-18.8,18.4-22.9,31.5c-2.6,8.2-5.8,16-11.5,22.7
		c-4.5,5.3-7.7,6.4-12.6,3.1c-1.4-0.9-1.9-3-3-4.5c-6.8-9.6-12.7-19.5-16.1-31c-1.5-5-4.6-9.7-7.3-14.3c-3.3-5.7-6.7-11.4-10.6-16.7
		c-4.4-6-9.5-11.2-18.1-10.6c-11.1,0.7-21.2-3.4-31.4-6.9c-4-1.4-8.3-1.9-12.4-3.1c-2.4-0.7-4.7-1.8-7-2.5c-1.1-0.3-2.4-0.2-3.9-0.3
		c2.5,8.1,7.8,11.6,15.3,11.7c6.6,0.1,11.8,3.9,14,8.7c1.6,3.6,0.2,10.4-2.4,13.7c-9.3,11.8-20.9,21.6-35.9,25
		c-5.6,1.2-12.3-1.3-18.1-3.1c-6.3-2-10.7-6.9-14.9-11.9c-1.3-1.5-3.2-2.4-4.1-3c-3.1-4.5-6-8.5-8.8-12.6c-5.1,3.6-3.9,6.6-2.5,11.6
		c2.4,8.5,6.5,15.9,11,23c5.9,9.2,15.6,11.1,26,9.3c5-0.8,9.9-2.5,15-3.2c2.3-0.3,5.7,0.3,7,1.9c1.3,1.5,1.1,4.8,0.6,7.2
		c-1,4.7-2.2,9.5-4.2,13.8c-2.1,4.3-5.2,8.1-7.9,12.2c-6.8,10.2-13.8,20.3-20.4,30.7c-3.5,5.5-6.8,11.3-9,17.4
		c-2,5.6-2.5,11.8-3.4,17.7c-1.5,10.6-3.1,21.2-3.8,31.8c-0.6,10.4-6.5,18.7-10.9,27.2c-4,7.7-11,13.9-16.9,20.5
		c-5.4,6-10.7,12.2-16.8,17.5c-8.9,7.7-18.4,15.3-30.3,17.2c-5.3,0.8-12.5-1.2-16.6-4.6c-14.6-12.1-23.6-28.1-27.9-46.6
		c-0.6-2.8-1.9-5.4-2.9-8.1c-3.9-10.7-1.4-21.7-2-32.6c-0.2-4-0.2-8,0.1-12c0.5-8,1.9-16,1.7-24c-0.2-6.1-3-12.2-3.4-18.4
		c-0.4-6-3.3-10.4-6.2-15.3c-6.6-11.3-16.8-16.7-29.1-17.8c-12.1-1.1-24.3-0.7-36.4-1.1c-11.5-0.4-21.8-3.7-30.4-11.7
		c-0.9-0.8-2.6-0.9-2.6-0.9c-14-24-12.8-48.2-3.8-73.1c8.8-24.5,24-43,47.5-55.7c-5.7-1.8-10-2.7-13.9-4.5
		c-7.1-3.4-11.3-8.7-12.8-17.2c-1.5-8.6,2.9-14,8.1-18.8c2.4-2.3,7-2.2,10.7-3.1c2.4-0.6,4.8-1.1,7.1-2c2.4-1,2.7-2.7,3-5.6
		c0.6-5-0.2-9.9,0.2-14.8c0.3-4.1,2.8-6.6,7.5-7.9c4.1-1.1,7.6-4.4,11.1-7.1c5.4-4.1,11.1-8,15.5-13c2.5-2.9,3.5-7.8,3.6-11.8
		c0-3.2,0.2-5.7,2.7-7.3c2.9-1.7,5,0.3,7.4,2.3c4.3,3.6,8.3,7.6,14.5,8.8c2.7,0.5,5.2,4,9,3.4c6.5-1,13.3-1.7,17.7-7.5
		c1.6-2.1,2.4-4.8,3.2-7.4c2.3-7.8,5.7-14.6,13.9-17.9c0.9-0.4,2.1-1.9,2-2.8c-0.1-0.9-1.3-2.2-2.3-2.7c-9.1-4.2-13-11.5-11.4-21.1
		c0.3-1.6-0.3-3.3-0.4-5c-1.7,0.5-4.1,0.4-4.9,1.5c-3.8,5-7.3,10.2-10.7,15.5c-0.6,0.9-0.6,2.9,0,3.9c3.5,5.6,1.3,11.1,0,16.7
		c-1.2,5.5-8.7,11.7-14.3,11.7c-4,0-8.3-3.6-9-7.6c-1.2-6.9-4-8.1-10.6-6.5c-2.7,0.6-7.3-1.3-9-3.6c-6.7-8.9-5.9-18.9-1.8-28.6
		c7.2-17.2,17.5-32.5,29.1-47.1c6-7.6,12.4-14.2,21.3-18c11.4-4.8,22.9-3.8,33.7,1.1c10.5,4.8,20.4,10.9,30.5,16.8
		c3.7,2.2,2.9,9.2-1.3,11.2c-3.4,1.6-7,2.8-10.6,3.6c-4,1-6.6,3.3-5.8,7.2c0.7,3.9,4.3,5.1,7.9,4.2c5.5-1.4,11.2-2.8,16.2-5.5
		c2.1-1.1,3.4-5.3,3.5-8.1c0.3-11.6,9.4-16.7,19-18.3c7.6-1.3,15.7-0.5,23.1-2.4c6-1.5,11.4-5.6,16.8-8.8c5.2-3,6.9-7.9,6.2-13.7
		c-0.3-2.4-1.5-4.6-1.9-6.9c-2.6-13.3,5.5-16.5,15.4-14.9c5.1,0.8,10.2,1.5,15.3,1.4c2.1,0,5.2-1.7,6.2-3.6
		c7.5-13.5,14.7-27.2,21.8-40.9c5.8-11.2,12.7-21.8,22.7-29.5c5.7-4.4,12.3-8.6,21.1-7.1c7.2,1.3,14.9-0.2,21.6,3.8
		c13.5,8.2,20.2,16.8,24.9,34.2c2.1-1.1,4-2.2,6-3.1c1.9-0.9,3.9-1.7,5.8-2.5c11.6-5.2,23.5-9.6,36.3-5.9c5.1,1.5,9.4,5.5,14.1,8.4
		c2.3,1.4,4.5,3.9,6.9,4.1c4.6,0.4,8.9-1.2,11.6-5.6c3.7-6.2,9-11,15.5-14c12.6-6,25.5-8.7,39.3-4.2
		c50.9,16.4,101.8,32.8,152.8,49.1c6.1,2,8.7,5.6,7.6,11.8c-1.1,5.9-1.8,12.1-4.2,17.6c-2.1,5-6,9.2-11.3,11.7
		c-4.9,2.3-9.9,4.5-14.6,7.2c-2.7,1.6-5.8,3.6-3.4,6.3c-1.5,2.3-3.1,3.8-3.2,5.3c-0.7,10,1.7,19.3,5.3,28.6
		c3.4,8.9,5.8,18.3,7.2,27.6c0.7,4.7-1.5,10-3.2,14.7c-1.4,3.7-6.6,4-9.8,1.5c-4.5-3.6-7.1-8.3-9.3-13.6c-1.9-4.4-5-8.3-7.2-12.6
		c-3-6.1-3.7-12.3-0.6-18.9c2.4-5,2.7-10.6,1.3-15.9c-1.4-5.5-8.2-8.6-13-5.6c-5.3,3.2-9.9,7.5-15.1,10.7c-3,1.8-6.6,2.8-10.1,3.4
		c-2.9,0.6-6,0.3-9,0.1c-4.9-0.4-8,2.3-10.8,5.7c-0.3,0.4-0.5,1.1-0.8,1.1c-9.2,1.6-9.5,10.9-13.5,16.7c-2.2,3.2-0.6,9-0.7,13.7
		c0,0.6,0.2,1.4,0.6,1.8c3.6,3.5,7,7.2,10.9,10.3c13.1,10.3,20.1,23.5,20.5,40.4c0.2,8.8,0.3,17.5-4,25.6c-1.5,2.7-2.9,5.6-4.9,7.9
		c-5.7,6.9-10.2,15-18.1,20.1c-1.3,0.8-1.6,4.6-1,6.7c1.1,4.2,3.6,8.1,4.7,12.4c1.2,4.9,0.3,9.9-3.2,13.9c-3.6,4-5.4,3.5-8.1-1.1
		c-2.9-5.1-6-10.2-9.8-14.6c-4.7-5.4-13.3-5.3-18.5-0.7c-4.1,3.7-3.9,11.1-0.1,17.4c4.3,7,7.8,14.5,12.1,21.5
		c5.5,8.9,4.2,19,4.1,28.4c-0.1,13.3-12.9,25.5-26.2,27.9c-4.8,0.9-9.6,2.2-14,4.1c-8.4,3.7-7.9,8.6-6.3,15.7
		c1.2,5.8,3.6,11.3,5,17.1c1.9,7.8-2.7,17.1-9.7,20c-1.8,0.7-4.1,0.5-6.2,0.5C1344,624.5,1342.3,624.3,1341.4,624.2z"/>
	<path class="st4" d="M635.9,878.8c-1.5,2.3-3.8,4.3-4.3,6.7c-1.6,7.6-2.9,15.2-3.4,22.9c-0.2,3.9,1.7,8,2.4,12
		c0.3,1.8-0.5,3.9,0.1,5.6c2.9,7.6,5.9,15.2,9.1,22.7c2,4.7,2.7,9.3-0.4,13.4c-3.5,4.6-9.3,4-13.4,2.4c-4.1-1.6-7.4-5.8-10.5-9.4
		c-10-11.9-16.6-25.6-20.7-40.5c-2.4-8.9-4.3-18-5.7-27.2c-0.6-4,0.2-8.2,0.9-12.3c3.4-20.9,5.6-41.9,4.8-63
		c-0.6-13.5-0.2-27.3-5.3-40c-4.7-12-8.8-24.4-19.5-33.4c-7.8-6.6-14.1-15.1-20.3-23.4c-3.5-4.7-6-10.4-6-16.8
		c0-6.2-0.2-12.4-0.9-18.5c-0.9-7.3,4.1-11.7,7.2-17c1.2-2.1,3.1-3.8,4.9-5.6c5.2-5.5,5.3-7-0.6-11.3c-12.6-9.2-25-18.8-38.3-26.9
		c-9.5-5.8-20.1-9.8-30.4-14.2c-12.6-5.4-25.2-11-35.3-20.5c-3.1-2.9-5.7-6.4-7.5-10.7c-3-7.4-7.8-14.1-11.8-21.1
		c-2.8-4.9-5.3-10-8.3-14.9c-1.2-1.9-3.3-3.3-5.3-5.3c0.8-3.9-0.4-5.4-5-5c0.9,5.5,1.8,11.1,2.6,16.7c-4,0.6-9.7-3.6-11.1-6.4
		c-4.3-8.6-8.3-17.3-13.4-25.4c-6.2-9.7-8.8-20.2-10.7-31.3c-1.5-8.9,0.2-17.4,1.3-26c0.4-3.4,2-6.6,2.8-9.9
		c2.3-9.3,5.2-18.6,6.5-28c1.1-7.5,2-15.8,0-22.8c-4.6-15.9-1.7-30.9,1.6-46.2c8.2-38.3,20.1-75.4,35.6-111.4
		c2.2-5,3.8-9.7,10.9-9.2c5.2,0.4,10.7-1.8,15.6-0.7c6.7,1.6,13,4.9,19.2,8.1c5.6,2.8,11,6,17.7,5.2c4.3-0.5,7.8-3.2,8.7-7.9
		c0.8-4.2-1.6-6.8-4.9-9c-2.7-1.7-5.9-3.3-7.5-5.8c-4.1-6.1-2.2-14.6,3.6-19.4c2.9-2.4,5.6-5.1,8.8-7.1c4.2-2.6,8.2-0.2,11.5,2
		c5.4,3.7,10.1,8.2,15.3,12.2c6.7,5.2,13.8,9.3,22.6,9.5c4.3,0.1,6.1,2.4,5.8,6.7c-0.2,3.2,0.5,6.5,0.1,9.7
		c-0.5,3.9-1.7,7.7-2.8,11.4c-1.5,5.1-0.1,9,4.1,12.3c11.2,8.7,24,12.1,38,12.4c4.3,0.1,8.7,1.6,12.9,3.1c3.1,1.1,4.3,12,1.3,15.6
		c-4,4.8-8.7,9-13.3,13.2c-5.6,5.3-12.9,7.4-19.8,10.3c-6.8,2.8-13.8,5.9-19.5,10.4c-6.4,5-13.3,10.8-15.1,18.9
		c-1.5,6.4-3,13.7,2.5,20.3c6.3,7.6,13.9,13.4,21.6,19.3c5.2,3.9,10.1,8.3,15.2,12.3c5.4,4.3,10.3,2.4,11.9-4.4
		c2.3-9.9,4.5-19.8,6.9-29.7c2.9-12,17.6-19.5,27.9-12.8c7.4,4.8,13.4,11.9,19.3,18.7c4.5,5.2,8,11.3,11.8,17.1
		c2.2,3.4,4.2,6.9,6.2,10.5c2.5,4.7,4.7,9.5,7.3,14.2c7.7,13.7-0.5,26.1-10.2,32.9c-9.4,6.5-19.6,11.9-29.5,17.8
		c-8,4.8-16.8,8.6-23.6,14.7c-6.3,5.6-11.1,13.3-15.4,20.7c-3.3,5.7-7.4,10-13.2,12.9c-5.8,3-11.6,6.1-17.3,9.1
		c-7.5,3.9-9.9,10-9.2,18.3c0.5,5.9,0,12-1.1,17.8c-0.5,2.4-3.9,4.2-6.4,6.7c-4.4-9.5-11.3-15.7-19.2-19.8c-9.7-5.2-20.4-7.5-32-5.6
		c-6.1,1-10.2,3.6-14.1,7.6c-0.8,0.8-1.5,1.9-1.7,2.9c-0.9,6.8-2.5,13.6-2.1,20.4c0.3,5.7,0,12.5,5.3,16.7
		c7.2,5.7,14.7,4.4,20.3-2.8c3.2-4.1,12.6-6.6,16.8-3.9c2.7,1.7,5.3,3.5,3.1,7.9c-2,4-2.6,8.6-4,13.7c3.5,0,6.3-0.4,9,0.1
		c2.1,0.4,5,1.5,5.6,3.1c2.1,5.2,6.2,9.9,4.8,16.2c-0.4,1.9,0.1,4-0.2,6c-0.3,3.1,1.2,4.5,3.8,5.5c4.3,1.6,8.4,3.7,12.8,5.1
		c2.1,0.6,5.3,0.8,7-0.3c11.4-7.4,23.8-10.5,37.3-9.8c12.4,0.6,24.1,3.5,34.8,9.8c12.1,7.1,24,14.4,35.7,22.2
		c5.7,3.8,10.3,9,15.7,13.3c12.7,10.1,26,19.2,41.3,25.1c4.5,1.7,9.1,3.4,13.5,5.4c8.7,4.1,12.2,12.4,7.1,22.2
		c-2.6,5-3.3,11-5.2,16.3c-1.7,5-4.4,9.6-5.9,14.6c-4.1,13.6-15.4,21.6-24.2,31.5c-4.3,4.9-10.5,7.9-14.9,12.8
		c-6.6,7.4-12.1,15.6-14.8,25.5c-1.3,4.6-4.5,8.9-7.2,13c-2.6,3.9-5.7,7.4-8.7,11c-4.6,5.6-9.2,11.2-14,16.5c-2.5,2.8-5.6,5-8.1,7.7
		c-2.3,2.5-4.4,5.2-6,8.1C635.9,874.9,636.2,877.2,635.9,878.8z"/>
	<path class="st4" d="M800.4,133.9c6.7,1.3,13.7,1.8,20.2,3.9c12.3,4,18.4,17.1,17.5,30c-0.9,11.9-6,22.1-9.5,33
		c-2.1,6.3-5.9,12.1-7.6,18.5c-1.8,6.9-2.4,14.3-2.9,21.5c-0.7,9.2-0.2,18.6-1.3,27.8c-0.5,4.7-2.7,9.5-5.2,13.6
		c-6.4,10.5-15.9,18-25.9,24.9c-5.9,4.1-11.2,9.2-16.9,13.6c-12.1,9.5-24.3,19-36.6,28.2c-3.1,2.4-6.7,2.4-10.4-0.3
		c-6.7-4.7-9.2-11.7-11.9-18.8c-4.4-11.5-4-23.3-1.6-34.7c2.5-12.3,6.4-24.5,11.2-36c5.5-13,3.7-29.7-6.7-39.4
		c-6.2-5.8-13.4-10.7-20-16.1c-8.2-6.6-7.7-19,1-24.1c8.5-5,17.3-9.5,25.7-14.6c8.9-5.4,17.4-11.5,26.3-16.9
		c4.2-2.5,8.8-4.5,13.4-6.2c13.2-5.1,26.9-7.7,41.2-6.7C800.3,134.7,800.3,134.3,800.4,133.9z"/>
	<path class="st4" d="M1368.2,815.6c0.9-10.7,1.4-21.5,2.9-32.1c0.7-4.6,3.2-9.1,5.6-13.4c0.7-1.2,3.7-1,5.3-2
		c7.1-4.8,15.5-6.3,23.4-8.9c10.8-3.6,18.8-11.2,27.1-18.2c7.9-6.7,16.5-12.1,26.6-14.7c8.2-2.1,13.4,1.9,13.9,10.5
		c0.1,2.3,0.4,4.8,1.5,6.7c1.6,3,3.4,7.3,6,8.1c5,1.4,9.8-0.3,13.4-5.1c3.7-4.9,5.1-9.6,3.3-15.5c-0.3-1.1,1.1-3.6,2.3-4.1
		c1.3-0.5,4.1-0.1,4.8,1c3,4.5,5.6,9.2,8.1,14c6.1,11.4,12.7,22.5,17.8,34.3c4.2,9.9,7.2,20.5,9.5,31.1c1.3,6.2-1.1,12.7-2.9,18.9
		c-0.8,2.7-0.3,5.7-1.1,8.4c-0.7,2.3-2.7,4.3-3.6,6.6c-3.6,9.5-7.1,19.2-14.6,26.5c-11.9,11.4-28.4,11.9-39.6-1.1
		c-5.2-6.1-9.4-13.2-14.7-19.3c-5.4-6.3-11.1-12.9-19.3-15.4c-4.4-1.4-9.7-1.3-14.3-0.4c-9.5,1.9-18.1,6.5-26.9,10.3
		c-8.9,3.8-18.6,6.6-28.2,2.9c-4.3-1.6-5.4-6.5-5.5-11c-0.1-6,0-12,0-18C1368.7,815.6,1368.5,815.6,1368.2,815.6z"/>
	<path class="st5" d="M679.8,117c13.2,1.3,26.3,2.5,39.5,4.1c2,0.2,5.2,2,5.4,3.3c0.3,2.4-0.6,6-2.3,7.4
		c-10.1,8.3-20.8,15.8-30.9,24.2c-8.7,7.1-17.1,14.6-25,22.6c-8.7,8.8-16.5,18.5-24.9,27.5c-6.2,6.7-13.5,11.7-23.3,8
		c-8.5-3.2-16.6-13.9-15.3-23.5c0.6-4.4,3.7-6.8,8.1-5.8c8.9,2,19.2-4,23.8-11.2c2.4-3.8,1.3-7.7-1.3-11.1c-4-5.3-5.1-10.9-3.4-17.6
		c4.6-18.7,21.1-26.2,35.1-26.8c4.8-0.2,9.7,0,14.5,0C679.8,117.6,679.8,117.3,679.8,117z"/>
	<path class="st5" d="M637.3,308.3c0.8-4.7,1.6-9.4,2.4-14.1c1.4-8-2.3-16.7-10-21.1c-7.8-4.4-16.1-8-23.7-12.8
		c-11.5-7.4-11.1-18.2,0.6-24.7c9-5,19.5-7.3,30.1-4.5c4,1.1,8,3.1,11.5,5.4c8.7,5.6,16.2,13,21.1,21.6c6.8,12,14.9,24,13.7,39
		c-0.5,7-0.4,14-1.1,21c-0.5,6-11.3,15.2-17.2,16.1c-6.8,1.1-12.9,0.3-18.2-3.9C639.7,324.8,636.7,317.3,637.3,308.3z"/>
	<path class="st5" d="M1462,683.7c5.7-7.5,7-7.6,15.6-4.8c5.5,1.8,11.4,2.6,17.1,4.1c14.4,3.8,28.4,8.3,38.8,19.8
		c1.6,1.7,2.4,4.1,3.5,6.2c1,2.2,1.8,4.4,2.9,6.6c1.2,2.5-2.3,6.8-5.7,6.3c-3.2-0.5-6.5-1.2-9.4-2.6c-9-4.1-17.7-9-28.3-8.4
		c-2.1,0.1-4.5-2-6.4-3.4c-7.2-5.4-14.5-10.9-21.5-16.6C1466.1,689,1464.3,686.3,1462,683.7z"/>
	<path class="st5" d="M1470.7,442.2c0.4,2.6,0.3,4.9,1.1,6.9c2.5,5.9,5.1,11.7,8.1,17.3c5.4,10.1,1.3,21.8-9.3,26.1
		c-1.7,0.7-3.3,1.4-5.1,1.9c-6.7,2.2-12.2,5.6-15.4,12.5c-2.2,4.7-8.8,6.7-12,4.7c-3.9-2.4-5.4-7.8-3-11.8c1.3-2.3,2.9-4.5,4.8-6.2
		c4.7-4.2,10.1-7.7,14.5-12.2c3.7-3.7,6.6-8.1,9.4-12.5c0.9-1.4,0.2-3.7,0.3-5.5c0.1-1.7,0.6-3.4,0.7-5.1c0.1-1.3,0.1-2.7-0.2-3.9
		c-1.3-5.1-3.3-10-4-15.1c-0.4-3.1,0-7.5,1.9-9.6c2.4-2.6,6.5-4.6,10.8-2.7c2.8,1.2,6.2,1.6,8.3,3.5c1.7,1.5,3,5.4,2.2,7.1
		c-1,2.1-4.3,3.4-6.9,4.5C1475.5,442.7,1473.6,442.2,1470.7,442.2z"/>
	<path class="st4" d="M1398,667.4c0.3,7.4-1.2,14.3-6.4,20c-5.1,5.6-13,6.6-19,1.8c-3.5-2.8-6.9-5.8-10-9c-4.8-4.9-4.7-11-1.2-17
		c5.4-9.2,13.3-13.6,23.8-14.3c6-0.4,12.2,5.5,12.7,12.5C1398.2,663.4,1398,665.4,1398,667.4z"/>
	<path class="st4" d="M871,404.1c-3.5-3.7-5.4-2.3-8.7,0.7c-3.4,3-8.9,3.7-13.8,5.5c-1.6-3.5-4-6.1-2.2-10.5
		c3.9-9.3,10.3-13.3,21.5-11.4c-1.7-3.6-2.7-6.3-4.2-8.6c-3.3-5.1-2.8-9.2,2.1-12.7c1.2-0.9,2.4-1.7,3.7-2.6
		c6.2,3.5,8.7,9.2,9.7,15.9c0.7,5.2,3.2,9.1,7.7,12c6,3.8,7.9,13.4,4.2,18.8c-0.8,1.2-2.4,2.2-3.8,2.8c-2.6,1.1-5.2,2.1-8,2.5
		c-3.2,0.5-7.5,1.6-9.6,0c-3.5-2.4-1.3-6.6,0.3-9.9C870.2,405.7,870.6,404.9,871,404.1z"/>
	<path class="st5" d="M553,151.9c5.4,1.4,11,2.5,16.3,4.3c1.3,0.4,2.4,3,2.7,4.7c1.9,14.1-5.4,24-15.8,32c-1.7,1.3-5.8,0.8-8-0.4
		c-3.2-1.8-6.3-4.5-8.4-7.5c-3-4.2-6-8.7-7.3-13.6c-2.4-9.2,5.2-18,14.9-18.4c1.8-0.1,3.7,0,5.5,0
		C552.9,152.6,552.9,152.3,553,151.9z"/>
	<path class="st5" d="M1071.8,761.1c1.6-7.5,1.4-16,8.9-21.6c5.6-4.3,12-6,18.8-6.1c0.8,0,1.8,1.4,2.4,2.3c2.3,4.1,4.2,8.3,2.4,13.1
		c-0.2,0.4-0.1,1-0.1,1.5c-0.5,14.6-8.5,25.2-19,34.2c-1.1,1-4.9,0.9-5.8-0.1c-3.2-3.7-6.4-7.5-6.3-13
		C1072.9,768,1072.2,764.8,1071.8,761.1z"/>
	<path class="st5" d="M1067.8,264c-4.7,0-10-4.4-10.9-8.8c-1-5.3-2.8-10.5-3.2-15.9c-0.7-8.8-0.2-17.6,6.1-24.8
		c5-5.7,9.7-11.7,15.2-16.9c2.8-2.7,7-3.9,10.8-5.4c0.7-0.3,2.9,1.1,3.2,2.1c0.7,2.3,1.2,4.9,0.8,7.2c-0.2,1.2-2.3,2.5-3.7,2.9
		c-10.2,2.8-13.2,10.9-15,19.8c-1,5-2.8,9.9-2.8,14.9c0.1,4.9,1.6,10,3.3,14.7C1073.7,259.8,1072.6,263.9,1067.8,264z"/>
	<path class="st6" d="M923.3,191.4c-2.7-10.6,5.4-13.6,12-17.3c3.8-2.1,8.2-3.2,12.2-5c3.9-1.8,7.4-0.4,9.8,2.1
		c1.3,1.4,1.3,5.2,0.3,7.2c-5.6,11.4-11.7,22.6-22.1,30.5c-2.7,2.1-6.8,1.2-8.3-2.2c-2.2-4.8-3.7-9.9-5.6-14.9
		C922.2,191.5,922.8,191.4,923.3,191.4z"/>
	<path class="st5" d="M542.5,564c12.9-1.1,24.8,2.4,36.5,8.1c4.3,2.1,9.3,2.6,14,4c2.7,0.8,5.4,1.8,7.7,3.2c3.2,1.9,4.6,5.5,3,8.6
		c-0.9,2-4.2,3.9-6.5,3.9c-5,0-10-1.2-14.9-2c-11.4-2-21.5-7.1-31.6-12.4c-3.9-2-6.6-5.2-6.8-10C543.8,566.1,542.9,564.9,542.5,564z
		"/>
	<path class="st5" d="M1315.9,654.6c2.2,1.5,5.1,3.1,7.5,5.2c5.5,4.8,10.6,10,16.2,14.7c5.8,5,7.1,11.8,7.4,18.7
		c0.2,3.5-4.9,6.1-8.5,4.8c-6.8-2.5-12.2-7-16.5-12.4c-3.8-4.9-6.6-10.6-9.8-15.9c-1.7-2.9-4-5.2-3.4-9.4
		C1309.4,656.2,1311.9,655.6,1315.9,654.6z"/>
	<path class="st4" d="M600.4,220.2c-0.3,8.9-7.8,18.4-16.7,18.9c-3.5,0.2-8.4-2-10.5-4.7c-3.1-4-4.5-9.4-6-14.4
		c-0.9-2.8,3.6-9.1,6.5-10.4c7.7-3.2,19.7-1,25.2,5.1C600,215.9,599.9,218.3,600.4,220.2z"/>
	<path class="st7" d="M1426.1,644.1c-5.8-2.8-9.2-7-10.5-13.8c-1-5.1-3.8-9.9-6.4-14.5c-1.8-3.2-5.1-5.7-6.7-8.9
		c-1.3-2.5-1.2-5.9-1.3-8.8c0-0.3,3-1.5,3.9-1c4.2,2.5,8.5,5,11.9,8.4c4.7,4.6,9,9.8,12.8,15.2c1.6,2.3,1.5,5.8,2.1,8.8
		C1433.2,635.5,1431.1,640.2,1426.1,644.1z"/>
	<path class="st5" d="M818.3,331c-6.3,0.2-12.8,0-14.9-6.9c-1.3-4.2-0.5-9-0.2-13.6c0.1-0.9,2.2-2.3,3.4-2.3
		c7.8,0.1,15.7,0.2,23.5,0.9c2.6,0.2,5.9,1.7,7.2,3.7c1.8,2.9,1.5,6.4-1.2,9.5C831.1,327.8,825.9,331.9,818.3,331z"/>
	<path class="st4" d="M594,153.1c0.1-8.6,2.4-10,10.3-7.8c6.4,1.8,11,4.9,13,11.6c1.6,5.6-0.1,11-4.7,13.2
		c-4.8,2.4-11.2,0.9-14.3-3.5C595.2,162.5,592.9,157.9,594,153.1z"/>
	<path class="st4" d="M1156,152.1c0.1,3.8-7.5,8.4-11.2,6.3c-6.3-3.5-12.5-7.2-18.2-11.4c-1.6-1.1-2.5-4.8-2-6.8
		c0.7-2.5,2.4-5.5,6.5-4.5c2.6,0.6,5.3,0.3,8,0.4C1145.9,136.3,1155.8,145.8,1156,152.1z"/>
	<path class="st6" d="M1482.9,883.4c3.6,4.9,9,4.2,14,4.5c5.5,0.3,6.2,1,5.3,6.5c-0.9,5.7-1.7,11.5-8.2,13.8
		c-1.2,0.4-3.3,0.5-3.9-0.2c-4-4.8-7.9-9.6-11.3-14.8c-0.7-1,0.6-3.5,1.3-5.1C1480.8,886.5,1481.8,885.2,1482.9,883.4z"/>
	<path class="st4" d="M1360.5,703.3c4-5.3,9-3.5,13.2-2.9c7.6,1.1,15.2,2.7,22.7,4.7c2.1,0.5,5,2.9,5.1,4.7c0.3,3.2-2.3,5.8-5.8,5.1
		c-9.7-1.8-19.4-3.7-28.9-6.2C1364.5,708.2,1362.8,705.4,1360.5,703.3z"/>
	<path class="st6" d="M1459.8,411.1c-3.6-12.2-7.1-24.1-10.7-36.5c6.5,1.1,18.9,14.3,18.9,19
		C1468.1,400.5,1464.2,409.9,1459.8,411.1z"/>
	<path class="st5" d="M1160,160.7c0-1.5-0.3-3.1,0.1-4.5c0.6-2.1,1.4-5.3,2.7-5.7c2.4-0.7,5.9-0.5,7.9,0.9
		c7.6,4.9,7.7,10.5,0.6,16.3c-2.5,2-5.1,6.3-8.4,3.9c-2.1-1.6-2.1-6.1-2.9-9.3C1159.9,161.8,1160,161.2,1160,160.7
		C1160,160.7,1160,160.7,1160,160.7z"/>
	<path class="st8" d="M1241.3,639.9c-1.5-1.7-4-3.3-3.8-4.3c0.7-2.8,2-5.8,4-7.7c1-1,4.7-0.6,6,0.5c2.3,1.9,1.5,4.8-0.6,6.9
		C1245.3,637,1243.2,638.4,1241.3,639.9z"/>
</g>
<g id="Lager_5">
	<path class="st9" d="M993.9,0c153.3,0,306.7,0,460,0c1,0.6,1.8,1.5,2.9,1.8c8.4,2.7,17,5.1,25.3,7.9c16.1,5.5,32.2,11.1,48.3,16.9
		c16.7,6,33.3,12.2,50,18.3c20.1,7.3,40.2,14.3,60.2,21.8c19.4,7.2,38.7,14.7,58,22.1c18.6,7,37,14.3,55.8,21
		c20,7.1,40.3,13.5,60.5,20.2c16.4,5.4,32.7,10.9,49.2,16.1c13.9,4.4,27.9,8.6,41.8,12.7c4.6,1.3,9.3,2.1,13.9,3.2
		c0,278,0,556,0,834c-253.5,0-507,0-760.5,0c-161.2,0-322.3,0-483.5-0.1c-2.8,0-6.1-1.3-8.3-3.1c-17.1-13.9-31.1-30.6-43.8-48.5
		c-8.2-11.6-17-23.4-22.6-36.4c-8.8-20.5-15.4-42.1-17.2-64.5c-1.3-16.5-2-33.3-0.8-49.7c1.1-13.9,4.2-28,8.5-41.3
		c5.4-16.8,11.7-33.5,19.9-49c16.1-30.8,37.4-58.3,59.8-84.8c29.4-34.7,59.4-68.9,80.5-109.7c15.2-29.3,29.8-58.7,37.1-91.2
		c5.8-25.7,11.9-51.4,17.3-77.2c3.4-16.5,5.6-33.3,8.6-49.9c5.3-28.8,12.2-57.3,21.9-85c10.2-29,21.9-57.4,37.6-83.9
		C901.1,76.7,934.6,38.1,979,9.8C984,6.6,989,3.3,993.9,0z"/>
</g>
<g id="Lager_1_kopia">
	<path class="st10" d="M1721.2,533.1c-2.8-3.5-4.7-7-7.6-9.3c-3.4-2.8-7-0.5-8.1,3.8c-1.9,7.3,0.5,12.7,5.6,17.8
		c2.5,2.5,4.8,5.8,5.8,9.2c1.3,4.3,0.3,8.7-4.8,11.6c-5.9-5.8-12.5-11.6-15.8-19.9c-5.2-12.9-9.6-26-15.6-38.5
		c-1.7-3.6-2.7-9.6-8.8-10.3c-0.4,0-1-0.7-1-0.9c0.9-5.8-3.7-7-7.4-9.2c-4.5-2.6-9.4-2.3-13.9,0.7c-10.9,7.3-17.8,17.5-21.8,29.9
		c-2.5,7.8-5.5,15.2-10.9,21.5c-4.2,5-7.3,6.1-12,2.9c-1.3-0.9-1.8-2.9-2.8-4.2c-6.5-9.1-12.1-18.5-15.3-29.4
		c-1.4-4.8-4.4-9.2-7-13.6c-3.2-5.4-6.4-10.8-10.1-15.9c-4.2-5.7-9-10.6-17.2-10.1c-10.5,0.7-20.1-3.2-29.8-6.5
		c-3.8-1.3-7.9-1.9-11.8-2.9c-2.3-0.6-4.4-1.7-6.7-2.3c-1.1-0.3-2.3-0.2-3.7-0.3c2.3,7.7,7.4,11,14.5,11.1
		c6.3,0.1,11.2,3.7,13.3,8.3c1.5,3.4,0.2,9.9-2.3,13c-8.8,11.2-19.8,20.6-34.1,23.7c-5.3,1.2-11.6-1.2-17.2-3
		c-5.9-1.9-10.2-6.6-14.2-11.3c-1.2-1.4-3.1-2.3-3.9-2.9c-3-4.3-5.7-8.1-8.4-12c-4.8,3.5-3.7,6.2-2.4,11c2.3,8.1,6.2,15.1,10.5,21.9
		c5.6,8.7,14.8,10.5,24.7,8.9c4.8-0.8,9.4-2.4,14.2-3c2.2-0.3,5.4,0.3,6.6,1.8c1.2,1.4,1.1,4.6,0.6,6.8c-1,4.5-2.1,9-4,13.1
		c-2,4.1-5,7.7-7.5,11.5c-6.5,9.7-13.1,19.3-19.3,29.2c-3.3,5.2-6.5,10.7-8.5,16.5c-1.9,5.3-2.4,11.2-3.2,16.9
		c-1.4,10.1-3,20.1-3.6,30.2c-0.6,9.9-6.2,17.7-10.4,25.8c-3.8,7.3-10.4,13.2-16.1,19.4c-5.1,5.7-10.2,11.6-16,16.6
		c-8.4,7.3-17.5,14.6-28.8,16.3c-5,0.8-11.8-1.1-15.8-4.3c-13.9-11.5-22.5-26.6-26.5-44.3c-0.6-2.6-1.8-5.1-2.7-7.7
		c-3.7-10.1-1.3-20.6-1.9-30.9c-0.2-3.8-0.2-7.6,0.1-11.4c0.5-7.6,1.8-15.2,1.6-22.8c-0.2-5.8-2.8-11.6-3.2-17.5
		c-0.4-5.7-3.1-9.9-5.9-14.5c-6.3-10.7-16-15.8-27.7-16.9c-11.5-1-23-0.7-34.6-1.1c-10.9-0.3-20.7-3.5-28.9-11.1
		c-0.9-0.8-2.4-0.8-2.4-0.8c-13.3-22.8-12.1-45.7-3.6-69.5c8.3-23.3,22.8-40.9,45.1-52.9c-5.4-1.7-9.5-2.6-13.2-4.3
		c-6.8-3.2-10.8-8.3-12.1-16.3c-1.4-8.2,2.8-13.3,7.7-17.8c2.3-2.1,6.7-2,10.1-3c2.3-0.6,4.6-1,6.7-1.9c2.2-0.9,2.6-2.5,2.9-5.3
		c0.5-4.8-0.2-9.4,0.2-14c0.3-3.9,2.7-6.3,7.1-7.5c3.9-1.1,7.2-4.2,10.6-6.7c5.1-3.9,10.5-7.6,14.7-12.3c2.4-2.7,3.4-7.4,3.4-11.2
		c0-3,0.2-5.5,2.6-6.9c2.8-1.7,4.8,0.3,7,2.1c4.1,3.4,7.9,7.2,13.8,8.3c2.6,0.5,4.9,3.8,8.5,3.3c6.2-1,12.6-1.6,16.8-7.1
		c1.5-2,2.3-4.6,3-7c2.2-7.4,5.4-13.9,13.2-17c0.9-0.4,2-1.8,1.9-2.6c-0.1-0.9-1.2-2.1-2.2-2.5c-8.6-4-12.3-10.9-10.8-20.1
		c0.2-1.5-0.3-3.1-0.4-4.7c-1.6,0.4-3.8,0.4-4.7,1.4c-3.6,4.7-7,9.7-10.2,14.8c-0.6,0.9-0.5,2.8,0,3.7c3.3,5.4,1.2,10.6,0,15.9
		c-1.2,5.2-8.2,11.1-13.6,11.2c-3.8,0-7.9-3.4-8.5-7.2c-1.1-6.6-3.8-7.7-10-6.2c-2.5,0.6-6.9-1.2-8.6-3.4
		c-6.4-8.4-5.6-17.9-1.7-27.1c6.9-16.3,16.7-30.8,27.6-44.7c5.7-7.2,11.8-13.5,20.3-17.1c10.8-4.6,21.8-3.6,32,1.1
		c10,4.6,19.4,10.4,28.9,15.9c3.5,2,2.7,8.7-1.3,10.6c-3.2,1.5-6.6,2.6-10.1,3.4c-3.8,0.9-6.2,3.1-5.6,6.9c0.7,3.7,4.1,4.8,7.5,4
		c5.3-1.3,10.7-2.7,15.4-5.2c2-1,3.3-5,3.3-7.7c0.3-11,8.9-15.8,18-17.4c7.2-1.2,14.9-0.5,21.9-2.3c5.7-1.5,10.8-5.3,16-8.3
		c4.9-2.9,6.6-7.5,5.8-13c-0.3-2.2-1.4-4.4-1.9-6.6c-2.4-12.6,5.2-15.7,14.7-14.1c4.8,0.8,9.7,1.4,14.6,1.4c2,0,4.9-1.6,5.9-3.4
		c7.1-12.8,13.9-25.9,20.7-38.9c5.5-10.6,12.1-20.7,21.5-28c5.4-4.2,11.7-8.2,20-6.7c6.8,1.2,14.2-0.2,20.6,3.6
		c12.9,7.8,19.1,16,23.7,32.5c2-1.1,3.8-2.1,5.7-3c1.8-0.9,3.7-1.6,5.5-2.4c11-4.9,22.4-9.1,34.5-5.6c4.8,1.4,9,5.3,13.4,8
		c2.2,1.4,4.3,3.7,6.6,3.9c4.4,0.4,8.5-1.1,11-5.3c3.6-5.9,8.5-10.4,14.7-13.3c12-5.7,24.2-8.2,37.3-4
		c48.3,15.6,96.7,31.1,145.1,46.6c5.8,1.9,8.3,5.3,7.2,11.2c-1,5.6-1.8,11.5-4,16.7c-2,4.7-5.7,8.7-10.7,11.1
		c-4.7,2.2-9.4,4.3-13.9,6.8c-2.6,1.5-5.5,3.4-3.2,6c-1.4,2.2-3,3.6-3.1,5c-0.7,9.5,1.7,18.3,5.1,27.2c3.2,8.4,5.5,17.3,6.8,26.2
		c0.6,4.4-1.4,9.5-3.1,14c-1.3,3.5-6.3,3.8-9.3,1.4c-4.2-3.5-6.8-7.9-8.9-12.9c-1.8-4.2-4.8-7.9-6.8-12c-2.9-5.8-3.5-11.7-0.5-17.9
		c2.3-4.7,2.5-10.1,1.3-15.1c-1.3-5.2-7.8-8.1-12.3-5.3c-5,3-9.4,7.1-14.4,10.2c-2.8,1.7-6.3,2.6-9.5,3.3c-2.7,0.5-5.7,0.3-8.5,0.1
		c-4.7-0.4-7.6,2.1-10.2,5.4c-0.3,0.3-0.4,1-0.7,1.1c-8.8,1.5-9,10.3-12.8,15.9c-2.1,3.1-0.6,8.6-0.7,13c0,0.6,0.2,1.3,0.6,1.7
		c3.4,3.3,6.7,6.9,10.4,9.8c12.5,9.8,19.1,22.4,19.4,38.3c0.2,8.4,0.2,16.7-3.8,24.3c-1.4,2.6-2.8,5.3-4.6,7.5
		c-5.5,6.6-9.7,14.3-17.2,19.1c-1.2,0.8-1.5,4.4-1,6.3c1.1,4,3.4,7.7,4.4,11.8c1.1,4.7,0.3,9.4-3,13.2c-3.4,3.8-5.1,3.3-7.7-1.1
		c-2.8-4.8-5.7-9.6-9.3-13.8c-4.4-5.1-12.6-5.1-17.5-0.6c-3.9,3.5-3.7,10.6-0.1,16.5c4,6.7,7.4,13.8,11.5,20.4c5.3,8.5,4,18,3.9,27
		c-0.1,12.6-12.3,24.3-24.9,26.5c-4.5,0.8-9.1,2.1-13.3,3.9c-8,3.5-7.5,8.2-6,14.9c1.2,5.5,3.4,10.8,4.8,16.2
		c1.8,7.4-2.6,16.3-9.2,19c-1.7,0.7-3.9,0.5-5.8,0.5C1723.7,533.5,1722.1,533.2,1721.2,533.1z"/>
	<path class="st10" d="M1051.2,775c-1.5,2.2-3.6,4.1-4.1,6.4c-1.5,7.2-2.8,14.5-3.2,21.7c-0.2,3.7,1.6,7.6,2.2,11.4
		c0.3,1.7-0.5,3.7,0.1,5.3c2.7,7.3,5.6,14.5,8.7,21.6c1.9,4.4,2.6,8.8-0.4,12.8c-3.3,4.4-8.9,3.8-12.7,2.3c-3.9-1.5-7.1-5.5-10-8.9
		c-9.5-11.3-15.8-24.3-19.7-38.5c-2.3-8.5-4.1-17.1-5.4-25.8c-0.6-3.8,0.2-7.8,0.8-11.7c3.2-19.8,5.4-39.8,4.5-59.9
		c-0.5-12.8-0.2-26-5-38c-4.5-11.4-8.4-23.1-18.5-31.7c-7.4-6.3-13.4-14.3-19.2-22.2c-3.3-4.5-5.7-9.9-5.7-16
		c0-5.9-0.1-11.8-0.9-17.6c-0.9-6.9,3.9-11.1,6.8-16.2c1.2-2,3-3.6,4.6-5.3c4.9-5.2,5-6.6-0.6-10.7c-12-8.7-23.8-17.8-36.4-25.6
		c-9-5.5-19.1-9.3-28.8-13.5c-12-5.1-23.9-10.4-33.6-19.4c-2.9-2.8-5.4-6-7.1-10.2c-2.9-7-7.4-13.4-11.2-20
		c-2.7-4.7-5.1-9.5-7.9-14.1c-1.1-1.8-3.1-3.1-5.1-5c0.7-3.7-0.4-5.1-4.7-4.8c0.8,5.3,1.7,10.5,2.5,15.8c-3.8,0.6-9.2-3.4-10.5-6.1
		c-4.1-8.1-7.9-16.5-12.7-24.1c-5.9-9.2-8.4-19.2-10.2-29.8c-1.4-8.5,0.2-16.5,1.2-24.7c0.4-3.2,1.9-6.2,2.7-9.4
		c2.2-8.8,4.9-17.6,6.2-26.6c1-7.1,1.9-15,0-21.7c-4.3-15.1-1.6-29.4,1.5-43.9c7.8-36.4,19-71.6,33.8-105.8
		c2.1-4.8,3.6-9.2,10.3-8.7c4.9,0.3,10.2-1.7,14.8-0.6c6.3,1.5,12.3,4.7,18.2,7.7c5.4,2.7,10.4,5.7,16.8,4.9c4.1-0.5,7.4-3,8.3-7.5
		c0.7-4-1.5-6.5-4.6-8.5c-2.5-1.6-5.6-3.2-7.2-5.5c-3.9-5.8-2.1-13.9,3.4-18.4c2.8-2.3,5.3-4.8,8.4-6.7c4-2.4,7.8-0.2,10.9,1.9
		c5.1,3.5,9.6,7.8,14.5,11.6c6.3,4.9,13.1,8.9,21.5,9.1c4.1,0.1,5.8,2.3,5.5,6.4c-0.2,3,0.5,6.2,0.1,9.2c-0.5,3.7-1.7,7.3-2.7,10.9
		c-1.4,4.9-0.1,8.5,3.9,11.6c10.6,8.3,22.8,11.5,36,11.8c4.1,0.1,8.3,1.6,12.2,2.9c3,1.1,4.1,11.4,1.2,14.8
		c-3.8,4.5-8.3,8.5-12.6,12.6c-5.3,5-12.2,7.1-18.8,9.8c-6.5,2.7-13.1,5.6-18.5,9.8c-6.1,4.7-12.6,10.3-14.4,18
		c-1.4,6.1-2.9,13,2.3,19.3c6,7.2,13.2,12.8,20.5,18.3c4.9,3.7,9.6,7.8,14.4,11.7c5.1,4.1,9.8,2.3,11.3-4.2
		c2.1-9.4,4.3-18.8,6.6-28.2c2.8-11.4,16.7-18.5,26.5-12.2c7,4.5,12.7,11.3,18.3,17.7c4.3,4.9,7.6,10.7,11.2,16.2
		c2.1,3.2,4,6.6,5.9,10c2.4,4.4,4.5,9.1,7,13.5c7.3,13-0.5,24.8-9.7,31.2c-8.9,6.2-18.6,11.3-28,16.9c-7.6,4.5-15.9,8.2-22.4,14
		c-6,5.3-10.5,12.7-14.6,19.7c-3.2,5.4-7.1,9.5-12.5,12.2c-5.5,2.8-11,5.8-16.5,8.6c-7.1,3.7-9.4,9.5-8.8,17.4
		c0.4,5.6,0,11.4-1.1,16.9c-0.5,2.3-3.7,4-6.1,6.4c-4.2-9-10.8-14.9-18.2-18.8c-9.2-4.9-19.3-7.2-30.4-5.3c-5.8,1-9.7,3.4-13.4,7.2
		c-0.7,0.7-1.5,1.8-1.6,2.7c-0.8,6.4-2.4,12.9-2,19.3c0.3,5.4,0,11.8,5.1,15.8c6.8,5.4,14,4.2,19.2-2.6c3-3.9,11.9-6.2,15.9-3.7
		c2.5,1.6,5.1,3.3,3,7.5c-1.9,3.8-2.4,8.2-3.8,13c3.3,0,6-0.4,8.6,0.1c2,0.4,4.7,1.4,5.3,2.9c2,4.9,5.9,9.4,4.5,15.4
		c-0.4,1.8,0.1,3.8-0.2,5.7c-0.3,2.9,1.1,4.3,3.6,5.2c4.1,1.5,8,3.6,12.1,4.8c2,0.6,5,0.8,6.6-0.2c10.9-7,22.6-9.9,35.4-9.3
		c11.8,0.6,22.9,3.3,33,9.3c11.5,6.8,22.8,13.7,33.9,21.1c5.4,3.6,9.8,8.6,14.9,12.6c12.1,9.6,24.7,18.3,39.2,23.9
		c4.3,1.7,8.6,3.2,12.8,5.1c8.2,3.9,11.6,11.8,6.7,21.1c-2.5,4.7-3.1,10.4-4.9,15.5c-1.7,4.7-4.2,9.1-5.6,13.9
		c-3.9,12.9-14.7,20.5-23,30c-4.1,4.6-10,7.5-14.1,12.1c-6.3,7-11.5,14.8-14.1,24.2c-1.2,4.4-4.2,8.4-6.9,12.3
		c-2.5,3.7-5.4,7-8.3,10.4c-4.4,5.3-8.8,10.6-13.3,15.7c-2.4,2.6-5.3,4.7-7.7,7.4c-2.1,2.4-4.2,4.9-5.7,7.7
		C1051.2,771.2,1051.4,773.4,1051.2,775z"/>
	<path class="st10" d="M1207.4,67.5c6.4,1.2,13,1.7,19.2,3.7c11.7,3.8,17.5,16.3,16.6,28.5c-0.9,11.3-5.7,21-9,31.3
		c-2,6-5.6,11.5-7.2,17.6c-1.7,6.6-2.3,13.6-2.8,20.4c-0.6,8.8-0.2,17.7-1.2,26.4c-0.5,4.5-2.6,9.1-4.9,12.9
		c-6.1,9.9-15.1,17.1-24.6,23.6c-5.6,3.9-10.6,8.7-16,12.9c-11.5,9-23,18-34.8,26.8c-3,2.2-6.3,2.2-9.9-0.3
		c-6.4-4.5-8.7-11.1-11.3-17.9c-4.1-10.9-3.8-22.1-1.5-33c2.4-11.7,6-23.2,10.6-34.2c5.2-12.4,3.6-28.2-6.4-37.5
		c-5.9-5.5-12.7-10.2-19-15.2c-7.8-6.2-7.3-18,0.9-22.9c8.1-4.7,16.4-9,24.4-13.9c8.4-5.1,16.5-10.9,24.9-16c4-2.4,8.4-4.2,12.7-5.9
		c12.6-4.8,25.6-7.4,39.1-6.3C1207.3,68.3,1207.3,67.9,1207.4,67.5z"/>
	<path class="st10" d="M1746.7,714.9c0.9-10.2,1.3-20.4,2.8-30.5c0.6-4.4,3.1-8.7,5.3-12.7c0.7-1.2,3.5-0.9,5-1.9
		c6.8-4.5,14.7-6,22.2-8.5c10.3-3.4,17.9-10.6,25.8-17.3c7.5-6.4,15.6-11.5,25.2-14c7.8-2,12.7,1.8,13.2,9.9
		c0.1,2.2,0.4,4.5,1.4,6.4c1.5,2.9,3.2,7,5.7,7.7c4.7,1.4,9.3-0.3,12.7-4.9c3.5-4.6,4.8-9.1,3.1-14.7c-0.3-1.1,1.1-3.4,2.2-3.9
		c1.3-0.5,3.9-0.1,4.6,0.9c2.9,4.2,5.3,8.8,7.7,13.3c5.8,10.8,12.1,21.4,16.9,32.6c4,9.4,6.8,19.5,9,29.5c1.3,5.9-1,12-2.8,17.9
		c-0.8,2.5-0.2,5.5-1,8c-0.7,2.2-2.6,4-3.4,6.2c-3.4,9.1-6.7,18.3-13.9,25.2c-11.3,10.9-27,11.3-37.6-1.1c-5-5.8-9-12.5-14-18.3
		c-5.1-6-10.5-12.2-18.3-14.7c-4.2-1.3-9.2-1.2-13.6-0.3c-9,1.8-17.2,6.2-25.6,9.8c-8.4,3.6-17.6,6.3-26.8,2.8
		c-4.1-1.5-5.1-6.2-5.2-10.4c-0.1-5.7,0-11.4,0-17.1C1747.2,715,1746.9,714.9,1746.7,714.9z"/>
	<path class="st10" d="M1092.9,51.5c12.5,1.3,25,2.4,37.5,3.9c1.9,0.2,4.9,1.9,5.1,3.1c0.2,2.3-0.5,5.7-2.2,7
		c-9.6,7.9-19.8,15-29.3,22.9c-8.2,6.8-16.3,13.9-23.7,21.5c-8.2,8.4-15.6,17.5-23.7,26.1c-5.9,6.3-12.8,11.1-22.1,7.6
		c-8-3-15.8-13.2-14.5-22.3c0.6-4.2,3.6-6.4,7.7-5.5c8.5,1.9,18.2-3.8,22.6-10.6c2.3-3.6,1.2-7.3-1.2-10.5
		c-3.8-5.1-4.8-10.4-3.3-16.8c4.3-17.7,20-24.9,33.3-25.4c4.6-0.2,9.2,0,13.8,0C1092.8,52.1,1092.8,51.8,1092.9,51.5z"/>
	<path class="st10" d="M1052.5,233.1c0.8-4.5,1.5-8.9,2.3-13.4c1.4-7.6-2.2-15.9-9.5-20c-7.4-4.2-15.3-7.6-22.5-12.2
		c-10.9-7-10.6-17.3,0.6-23.5c8.6-4.7,18.5-6.9,28.6-4.2c3.8,1,7.6,2.9,10.9,5.1c8.2,5.3,15.4,12.3,20,20.5
		c6.4,11.4,14.1,22.8,13,37.1c-0.5,6.6-0.4,13.3-1,19.9c-0.5,5.7-10.7,14.4-16.4,15.3c-6.4,1.1-12.3,0.3-17.2-3.7
		C1054.8,248.8,1051.9,241.7,1052.5,233.1z"/>
	<path class="st10" d="M1835.8,589.7c5.4-7.1,6.7-7.3,14.8-4.6c5.3,1.8,10.9,2.5,16.3,3.9c13.6,3.6,27,7.9,36.8,18.8
		c1.5,1.6,2.3,3.9,3.3,5.9c1,2,1.7,4.2,2.7,6.3c1.2,2.4-2.2,6.4-5.4,5.9c-3-0.4-6.2-1.2-8.9-2.5c-8.6-3.9-16.9-8.6-26.9-7.9
		c-2,0.1-4.2-1.9-6.1-3.2c-6.9-5.2-13.7-10.4-20.4-15.8C1839.7,594.7,1837.9,592.1,1835.8,589.7z"/>
	<path class="st10" d="M1844,360.3c0.4,2.5,0.2,4.7,1,6.5c2.4,5.6,4.8,11.1,7.7,16.4c5.1,9.6,1.2,20.7-8.9,24.8
		c-1.6,0.6-3.2,1.3-4.8,1.8c-6.4,2.1-11.6,5.3-14.6,11.9c-2.1,4.4-8.3,6.3-11.4,4.5c-3.7-2.2-5.1-7.4-2.9-11.2
		c1.3-2.1,2.7-4.3,4.6-5.9c4.5-4,9.6-7.3,13.8-11.6c3.5-3.5,6.3-7.7,8.9-11.9c0.8-1.3,0.2-3.5,0.3-5.2c0.1-1.6,0.5-3.2,0.6-4.9
		c0.1-1.2,0.1-2.6-0.2-3.7c-1.3-4.8-3.1-9.5-3.8-14.4c-0.4-3,0-7.1,1.8-9.1c2.3-2.5,6.1-4.4,10.3-2.5c2.6,1.2,5.9,1.5,7.9,3.4
		c1.6,1.5,2.8,5.1,2,6.8c-1,2-4.1,3.2-6.5,4.3C1848.6,360.8,1846.8,360.3,1844,360.3z"/>
	<path class="st10" d="M1775,574.2c0.3,7-1.1,13.5-6.1,19c-4.9,5.4-12.4,6.2-18.1,1.7c-3.3-2.6-6.5-5.5-9.5-8.5
		c-4.5-4.7-4.5-10.4-1.1-16.1c5.2-8.7,12.7-13,22.6-13.6c5.7-0.3,11.6,5.2,12.1,11.8C1775.1,570.4,1775,572.3,1775,574.2z"/>
	<path class="st10" d="M1274.4,324.1c-3.3-3.5-5.1-2.2-8.3,0.6c-3.3,2.9-8.5,3.5-13.1,5.2c-1.5-3.3-3.8-5.8-2.1-10
		c3.7-8.8,9.8-12.7,20.5-10.9c-1.6-3.4-2.6-6-4-8.2c-3.1-4.8-2.6-8.7,2-12c1.1-0.8,2.3-1.6,3.5-2.5c5.9,3.3,8.3,8.7,9.2,15.1
		c0.7,4.9,3,8.6,7.3,11.4c5.7,3.7,7.5,12.7,4,17.9c-0.8,1.2-2.3,2.1-3.6,2.6c-2.4,1-5,2-7.6,2.4c-3.1,0.4-7.1,1.5-9.2,0
		c-3.3-2.3-1.2-6.2,0.3-9.4C1273.7,325.7,1274.1,324.8,1274.4,324.1z"/>
	<path class="st10" d="M972.5,84.6c5.2,1.3,10.4,2.4,15.4,4.1c1.2,0.4,2.3,2.9,2.5,4.5c1.8,13.4-5.2,22.8-15,30.4
		c-1.6,1.2-5.6,0.7-7.6-0.4c-3.1-1.7-6-4.3-8-7.1c-2.8-4-5.7-8.3-6.9-12.9c-2.3-8.7,5-17.1,14.1-17.5c1.7-0.1,3.5,0,5.2,0
		C972.3,85.3,972.4,84.9,972.5,84.6z"/>
	<path class="st10" d="M1465.1,663.2c1.5-7.2,1.3-15.2,8.4-20.6c5.4-4,11.3-5.7,17.8-5.8c0.7,0,1.7,1.3,2.2,2.2
		c2.2,3.9,4,7.8,2.2,12.4c-0.2,0.4-0.1,0.9-0.1,1.4c-0.4,13.9-8.1,23.9-18,32.5c-1.1,0.9-4.7,0.9-5.5-0.1c-3-3.5-6.1-7.1-6-12.4
		C1466.2,669.8,1465.5,666.7,1465.1,663.2z"/>
	<path class="st10" d="M1461.4,191.1c-4.4,0-9.5-4.1-10.3-8.4c-1-5-2.7-10-3-15.1c-0.6-8.3-0.2-16.7,5.8-23.5
		c4.8-5.4,9.2-11.1,14.4-16c2.7-2.5,6.7-3.7,10.2-5.1c0.7-0.3,2.7,1.1,3,2c0.7,2.2,1.1,4.6,0.7,6.8c-0.2,1.1-2.2,2.4-3.5,2.8
		c-9.7,2.6-12.5,10.3-14.3,18.8c-1,4.7-2.7,9.4-2.6,14.2c0.1,4.7,1.5,9.5,3.1,13.9C1467,187.1,1465.9,191,1461.4,191.1z"/>
	<path class="st10" d="M1324.1,122.1c-2.6-10.1,5.1-12.9,11.4-16.5c3.6-2,7.8-3,11.6-4.7c3.7-1.7,7-0.4,9.3,2
		c1.2,1.3,1.2,4.9,0.3,6.8c-5.3,10.8-11.1,21.4-21,28.9c-2.6,2-6.4,1.1-7.9-2.1c-2.1-4.6-3.6-9.4-5.3-14.1
		C1323.1,122.2,1323.6,122.2,1324.1,122.1z"/>
	<path class="st10" d="M962.5,476c12.3-1.1,23.6,2.3,34.6,7.7c4.1,2,8.9,2.4,13.3,3.8c2.5,0.8,5.1,1.7,7.3,3.1
		c3,1.8,4.3,5.2,2.9,8.2c-0.9,1.9-4,3.7-6.1,3.7c-4.7,0-9.5-1.1-14.2-1.9c-10.8-1.9-20.5-6.8-30-11.8c-3.7-1.9-6.3-4.9-6.5-9.5
		C963.7,478,962.9,476.9,962.5,476z"/>
	<path class="st10" d="M1697,562.1c2.1,1.5,4.8,3,7.1,5c5.2,4.6,10.1,9.5,15.3,14c5.5,4.8,6.7,11.2,7,17.8c0.1,3.4-4.7,5.8-8.1,4.6
		c-6.4-2.3-11.6-6.6-15.6-11.8c-3.6-4.6-6.3-10-9.3-15.1c-1.6-2.7-3.8-4.9-3.2-8.9C1690.8,563.5,1693.2,563,1697,562.1z"/>
	<path class="st10" d="M1017.4,149.4c-0.3,8.5-7.4,17.4-15.8,18c-3.3,0.2-8-1.9-10-4.5c-2.9-3.8-4.2-8.9-5.7-13.6
		c-0.8-2.6,3.4-8.7,6.2-9.8c7.3-3,18.7-0.9,23.9,4.8C1017.1,145.4,1017,147.7,1017.4,149.4z"/>
	<path class="st10" d="M1801.6,552.1c-5.5-2.6-8.7-6.7-10-13.2c-0.9-4.8-3.6-9.4-6.1-13.8c-1.7-3.1-4.8-5.4-6.4-8.5
		c-1.2-2.4-1.1-5.6-1.2-8.4c0-0.3,2.9-1.4,3.7-1c3.9,2.4,8.1,4.8,11.3,8c4.5,4.4,8.6,9.3,12.2,14.5c1.5,2.2,1.4,5.5,2,8.4
		C1808.4,543.9,1806.4,548.3,1801.6,552.1z"/>
	<path class="st10" d="M1224.4,254.7c-6,0.2-12.1,0-14.1-6.6c-1.2-4-0.5-8.6-0.2-12.9c0.1-0.8,2.1-2.2,3.2-2.2
		c7.4,0.1,14.9,0.2,22.3,0.9c2.4,0.2,5.6,1.6,6.8,3.5c1.7,2.7,1.4,6.1-1.2,9C1236.6,251.7,1231.6,255.6,1224.4,254.7z"/>
	<path class="st10" d="M1011.4,85.8c0.1-8.2,2.3-9.5,9.8-7.4c6,1.7,10.5,4.7,12.3,11c1.5,5.4-0.1,10.4-4.4,12.6
		c-4.5,2.3-10.6,0.8-13.6-3.3C1012.5,94.6,1010.3,90.3,1011.4,85.8z"/>
	<path class="st10" d="M1545.1,84.8c0.1,3.6-7.1,7.9-10.6,6c-6-3.3-11.8-6.8-17.3-10.9c-1.5-1.1-2.4-4.5-1.9-6.4
		c0.7-2.4,2.3-5.2,6.2-4.3c2.4,0.5,5,0.3,7.6,0.4C1535.5,69.8,1545,78.8,1545.1,84.8z"/>
	<path class="st10" d="M1855.6,779.4c3.4,4.7,8.6,4,13.3,4.2c5.2,0.3,5.9,1,5,6.1c-0.9,5.5-1.6,10.9-7.8,13.1
		c-1.1,0.4-3.2,0.4-3.7-0.2c-3.8-4.5-7.5-9.2-10.7-14c-0.6-0.9,0.6-3.3,1.3-4.9C1853.6,782.3,1854.6,781,1855.6,779.4z"/>
	<path class="st10" d="M1739.3,608.3c3.8-5,8.5-3.3,12.5-2.7c7.3,1,14.5,2.6,21.5,4.5c2,0.5,4.7,2.8,4.9,4.5c0.2,3-2.2,5.5-5.6,4.9
		c-9.2-1.7-18.4-3.5-27.4-5.9C1743.1,612.9,1741.6,610.3,1739.3,608.3z"/>
	<path class="st10" d="M1833.7,330.8c-3.4-11.6-6.7-22.9-10.2-34.7c6.1,1.1,17.9,13.6,18,18C1841.5,320.8,1837.8,329.7,1833.7,330.8
		z"/>
	<path class="st10" d="M1548.9,93c0-1.4-0.3-2.9,0.1-4.2c0.6-2,1.3-5,2.6-5.4c2.3-0.7,5.6-0.4,7.5,0.8c7.3,4.7,7.3,10,0.5,15.4
		c-2.4,1.9-4.8,6-7.9,3.7c-2-1.5-2-5.8-2.8-8.9C1548.8,94,1548.9,93.5,1548.9,93C1548.9,93,1548.9,93,1548.9,93z"/>
	<path class="st10" d="M1626.2,548.1c-1.5-1.6-3.8-3.2-3.6-4.1c0.6-2.7,1.9-5.5,3.8-7.4c0.9-0.9,4.4-0.5,5.7,0.5
		c2.2,1.8,1.4,4.6-0.5,6.5C1629.9,545.3,1627.9,546.7,1626.2,548.1z"/>
</g>
<g id="Lager_2" class="st3">
	<g id="Lager_4" class="st11">
		<image style="display:inline;overflow:visible;" width="1920" height="1080" xlink:href="Background7.png" >
		</image>
	</g>
	<rect x="938" y="315" class="st1" width="4" height="211"/>
	<rect x="942" y="315" class="st2" width="4" height="211"/>
</g>
</svg>
