<?xml version="1.0" encoding="utf-8"?>
<!-- Generator: Adobe Illustrator 27.2.0, SVG Export Plug-In . SVG Version: 6.00 Build 0)  -->
<svg version="1.1" xmlns="http://www.w3.org/2000/svg" xmlns:xlink="http://www.w3.org/1999/xlink" x="0px" y="0px"
	 viewBox="0 0 1920 980" style="enable-background:new 0 0 1920 980;" xml:space="preserve">
<style type="text/css">
	.st0{fill:#4A4474;}
	.st1{display:none;fill:#656186;}
	.st2{display:none;}
	.st3{display:inline;fill:#E0D1C6;stroke:#E0D1C6;stroke-miterlimit:10;}
	.st4{display:inline;fill:#F0E1D4;stroke:#F0E1D4;stroke-miterlimit:10;}
	.st5{display:inline;fill:#D8CCC3;stroke:#D8CCC3;stroke-miterlimit:10;}
	.st6{display:inline;fill:#B1584C;stroke:#B1584C;stroke-miterlimit:10;}
	.st7{display:inline;fill:#BA6158;stroke:#BA6158;stroke-miterlimit:10;}
	.st8{display:inline;fill:#F5B477;stroke:#F5B477;stroke-miterlimit:10;}
	.st9{display:inline;fill:#A56979;stroke:#A56979;stroke-miterlimit:10;}
	.st10{display:inline;fill:#936070;stroke:#936070;stroke-miterlimit:10;}
	.st11{display:inline;fill:#D6A596;stroke:#D6A596;stroke-miterlimit:10;}
	.st12{display:inline;fill:#E9B3A0;stroke:#E9B3A0;stroke-miterlimit:10;}
	.st13{display:inline;fill:#442019;stroke:#442019;stroke-miterlimit:10;}
	.st14{display:inline;fill:#3D1D13;stroke:#3D1D13;stroke-miterlimit:10;}
	.st15{fill:#E0D1C6;stroke:#E0D1C6;stroke-miterlimit:10;}
	.st16{fill:#F0E1D4;stroke:#F0E1D4;stroke-miterlimit:10;}
	.st17{fill:#D8CCC3;stroke:#D8CCC3;stroke-miterlimit:10;}
	.st18{fill:#B1584C;stroke:#B1584C;stroke-miterlimit:10;}
	.st19{fill:#BA6158;stroke:#BA6158;stroke-miterlimit:10;}
	.st20{fill:#F5B477;stroke:#F5B477;stroke-miterlimit:10;}
	.st21{fill:#A56979;stroke:#A56979;stroke-miterlimit:10;}
	.st22{fill:#936070;stroke:#936070;stroke-miterlimit:10;}
	.st23{fill:#D6A596;stroke:#D6A596;stroke-miterlimit:10;}
	.st24{fill:#E9B3A0;stroke:#E9B3A0;stroke-miterlimit:10;}
	.st25{fill:#442019;stroke:#442019;stroke-miterlimit:10;}
	.st26{fill:#3D1D13;stroke:#3D1D13;stroke-miterlimit:10;}
</style>
<g id="Lager_1">
</g>
<g id="Lager_2">
	<g id="Lager_1_00000071518813953637289710000011516338305297385359_">
		<g>
			<g>
				<path class="st0" d="M1218.8,777.6c12.7,0.6,44.9,1.6,80.5,7.8c30.9,5.4,61.5,12.9,91.6,21.9c49.2,14.8,97.8,31.4,146.5,47.6
					c41.1,13.7,83.3,21.8,126.2,26.5c21.7,2.4,43.5,3.8,65.3,4.7s43.7,2,65.4,0.8c41.2-2.2,80.8-12.3,119.1-27.5
					c2.3-0.9,4.7-1.4,7-2.1c0,40.7,0,81.3,0,122c-640,0-1280,0-1920,0c0-30,0-60,0-90c12.3-4,24.5-8.7,37-11.9
					c54.8-13.9,109.6-27.7,164.5-41c41.1-9.9,82.8-16.7,125-20.3c17.6-1.5,35.2-3.1,52.8-4.3c26.4-1.9,52.8-3.9,79.2-5.3
					c38.1-2,76.2-0.6,114.4,1.6c35.4,2.1,70.7,5.6,105.4,12.9c35,7.4,69.6,16.2,104.4,24.2c2.9,0.7,6.3,0.6,9.1-0.2
					c55.7-16.8,111.1-34.6,168.2-46.4c0,0,64.1-18.6,142-21.4c9.7-0.3,35.1-0.9,65.5-0.8C1185.4,776.7,1200.3,776.8,1218.8,777.6z"
					/>
			</g>
		</g>
		<path class="st1" d="M1176.3,775.5c-1.4,0.3-2.8,1-4.2,1c-13.8,0.1-27.7,0.1-41.5,0c-1.4,0-2.8-0.6-4.3-1
			C1143,775.5,1159.6,775.5,1176.3,775.5z"/>
	</g>
	<g id="Lager_2_00000109742410270657591240000009015038470688197556_">
		<g id="Lager_4" class="st2">
			<path class="st3" d="M848.9,759.6c-10.9-14.8-31.9-13-96.7-9.9c-90.6,4.3-99.7,3-115.7,13.9c-30,20.3-53,61.9-41.1,82.2
				c4.4,11,99.8,7.2,130.2,8.2c29.1,2.3,119.4,3.2,126.4-2.3c5.2-7.5,4.9-19.8,4.4-44.4C855.8,781.5,855.5,768.5,848.9,759.6z"/>
			<path class="st4" d="M860.2,770c8.5-7.6,13.9-22.2,9.3-32c-4.4-9.4-17-10.1-19.2-20.6c-1.6-7.4,3.9-10.8,1.7-15.2
				c-4.1-8.5-29.4-4.2-41.5-1.9c-39.1,7.5-47.2,16.1-66.1,19.4c-49.4,8.8-70.9-36-103.9-24.4c-33.4,11.8-49.7,70.6-35.6,84
				c5.6,5.3,13.2,0.9,35.6-2.7c37.4-6,40.4,2.3,111.7,1.3c42.4-0.6,32.7-3.4,58.3-2.7C837,776.1,849.9,779.2,860.2,770z"/>
			<path class="st5" d="M820,716.4c0.3-0.2,1.4-1,3-1.6c11.3-4.4,26.7,5.6,25.9,9.1c-0.5,1.9-6.8-0.3-17.7,2.1
				c-10.4,2.3-17.2,7-19.8,8.6c-7.7,4.6-23.5,8.4-80.7-3c-42.8-8.5-65.1-16.9-84-6.1c-4.8,2.7-11.3,7.8-10.3,10.7
				c1.1,3.3,10.7-0.2,19.4,6.3c1.3,1,3.9,4,9.1,9.9c5,5.7,5.3,6.5,5.3,7.4c0.2,5.6-9.5,10.5-17.1,14.3c-5.8,2.9-10,4.3-11.8,4.9
				c-19.9,7.6-27.6,38.7-28.7,38.3c-1.4-0.6,25.5-40.2,13.9-73.9c-3.1-8.9-8.4-16.1-5.9-26.3c3.1-12.7,16-19.7,19.8-21.7
				c23.9-12.8,46.6-3.3,90.2,5.9C742.6,703.8,806.5,725.7,820,716.4z"/>
		</g>
		<g id="PurpleYellow" class="st2">
			<path id="left_bicep_00000049922844389708938870000005498826954030446783_" class="st6" d="M757.7,509.3
				c8.8-42.1,23.9-60.2,16.8-66.7c-4.7-4.2-16.3-1-23.6,4.8c-12,9.4-8.8,22.6-16.4,63.2c-3.7,19.9-5.8,23.6-8.2,42.3
				c-2.4,19-5,40.4,2.9,44c4,1.8,9.1-1.6,10.1-2.3c9.7-6.5,9.1-21.2,10.3-37.1C750.5,543.9,752.9,532.4,757.7,509.3z"/>
			<path id="left_forearm_00000180345952257154314620000005151076264619533184_" class="st7" d="M709.4,530.4
				c-8.4-14.4-8.1-19.7-15.6-25.1c-4.5-3.3-11.2-6.1-13.3-4c-1.4,1.4-0.6,4.5,5.7,18.7c6.2,14,6.7,13.9,9.3,20.4
				c5.3,13.2,3.8,14.9,8.8,25.5c1,2.2,4.2,7.3,10.5,17.3c7.9,12.7,10.9,16.7,14.7,16.6c0.9,0,2.7-1,6.3-3c5.5-3.1,8.3-4.6,9.1-6.3
				c0.6-1.1,1.2-3-1.9-12.2c-2.7-7.9-4-11.8-7.2-16.4c-3.8-5.4-6.3-6-11.6-11C717.8,544.8,714.6,539.3,709.4,530.4z"/>
			<path id="thumb_00000139972854172018837350000016543614990408271019_" class="st7" d="M708.1,483.5c0.6,1.6-0.4,3.9-1.3,4
				c-0.5,0.1-0.8-0.6-2.1-2.1c-2.3-2.7-3.4-3.2-3.2-3.6C701.8,480.9,707,480.9,708.1,483.5z"/>
			<path class="st8" d="M712.1,498.4c-1.3,1.7-6.1,0.9-10.3,0.2c-2-0.3-3.4-0.6-4.9-1.5c-2.8-1.7-3.8-4.3-4.9-6.5
				c-2-3.8-5.2-6.9-7.8-10.3c-9.8-12.9-14.7-19.4-17.7-22.8c-2.3-4.2-7.4-9.7-8.4-13.9c0.2-0.6,0.9-1.4,1.9-1.9
				c0.7-0.4,1.8-0.8,5.7-0.2c1.2,0.2,3.2,0.5,4.6,1c2.5,0.4,8,7.7,8.8,9.1c3.8,7.4,10,13.3,14.8,20.2
				C705.9,489,714,495.7,712.1,498.4z"/>
			<path id="Fingers_00000131342266049173219800000016641514017414798268_" class="st7" d="M674.7,493.8c0.4,1.8,3.4,1.9,3.8,4.4
				c0.2,1.4-0.6,2.1-0.2,3.4c0.5,1.6,2.2,2.3,2.9,2.7c5.3,2.6,5.8,7.5,14.3,12.9c2.2,1.4,5.7,3.7,6.9,2.7c1.9-1.7-5.3-10.5-2.5-13.9
				c0.8-1,1.6-0.5,7-2.5c4.7-1.7,5.1-2.4,5.1-2.9c0.2-1.4-2.1-2.2-4.8-4.9c-2.1-2.1-2.2-3.1-4.6-6.7c-4.1-6.2-6.1-9.3-8.8-9.7
				c-1.8-0.3-2.4,0.6-12,7.4C677.1,490.2,674.4,492,674.7,493.8z"/>
			<path id="torso_00000073699415130188554390000005873544274730649238_" class="st9" d="M835.4,497.6c5.3-23.9,7.1-27.3,9.9-30.5
				c5.6-6.3,11-6.4,10.7-8.6c-0.7-5.3-33.7,5.1-66.8-9.3c-10.5-4.6-20.1-11.3-24.4-7.6c-2.9,2.5-0.8,7.3-1.9,20.2
				c-0.5,5.9-1,5.4-3,17.3c-2.7,16.1-2.1,18.5-4.2,29.1c-2.3,11.8-3.5,10.7-5.9,21.9c-4,18.5-3.7,34.3-3.4,40
				c0.7,15.5,3.1,16.7,2.1,28.7c-1.1,12.8-4.3,16.1-1.7,20c5.1,7.4,19.3-1.6,41.5,2.7c21.2,4,32.4,16.8,37.7,12.2
				c2.6-2.3,0.8-6.3,1-16.6c0.1-10,1.9-13.6,4.8-27.8c5.8-29,8.8-43.4,4.8-56.2c-1.3-4.3-3.8-10.3-3.8-19.2
				C832.6,511.3,832.8,509.3,835.4,497.6z"/>
			<path id="left_sleeve_00000144327064653237245320000012099626888638145980_" class="st10" d="M766.5,440.7
				c-3.4-2.6-13.2,2.8-18.8,9.7c-3.5,4.3-3.8,7.2-8.4,25.7c-2.9,12.8-4.6,24.6-3.2,25.5c2,1.4,4.1-1,11-0.8
				c6.8,0.2,8.2,2.7,10.7,1.7c1.3,0.4,1.6-14.7,3.8-32.7C763.8,451.5,770,443.3,766.5,440.7z"/>
			<path class="st11" d="M781.2,463.7c3.5-10.4-6.1-22-10.3-28c-22.1-31.9-7.6-76.2-13.1-76.7c-3.9-0.4-9.1,22.1-10.9,36.5
				c-2,16.2-3.4,28,3.6,35.8c2.9,3.2,7.2,5.6,7.6,10.5c0.4,3.9-2,5.3-4,10.7c-3.3,9,1.2,11.3-1.3,20c-2.8,9.7-9.3,10.1-9.1,17.5
				c0.2,5.9,4.3,7.7,3.2,13.1c-0.9,4.5-4,4.7-5.5,9.5c-1.7,5.4,1.3,7.7,1.5,13.9c0.5,11.8-9.9,17.8-7.4,21.5c2,3,10.8,1.9,16.8-2.1
				c4.6-3.1,6.5-7.2,10.1-15.2c4.4-9.7,3.1-11.3,7.2-20c4.6-9.7,6.9-9.2,7.6-14.5c1.1-8.5-4.6-11.2-3.2-19.4
				C775,470.3,779.3,469.3,781.2,463.7z"/>
			<path class="st11" d="M874.8,445.8c5,7.8,7.4,11.7,8.6,16.2c2.1,8.5-2.1,9.2-0.6,19.8c1.2,8.3,4,9.6,4.2,18.1
				c0.1,5.5-1,5.7-0.6,11c0.7,8.1,3.4,8.8,3,14.7c-0.4,6.1-3.5,6.8-3,12.4c0.4,5.3,3.3,6.1,2.9,9.5c-0.7,5.4-8.1,4.8-13.9,11.6
				c-7.2,8.5-3.9,18.9-9.1,20.4c-2.6,0.8-5.8-1.2-7.4-3.4c-4.3-5.9,0.7-16.3,2.5-20.2c12.5-27.6,16.8-76.7,2.1-89.3
				c-7.2-6.2-17.5-9.5-17.5-9.5c-4.1-1.3-6.6-1.6-7.8-1.9c-18.2-4.4-6.2-80.9-33.9-98c-17.8-11-43.5,7.9-46.4,1.9
				c-2.9-5.8,19-29.6,42.1-28c15.5,1.1,29.9,13.4,32,15.2c1.7,1.4,3.7,3.2,5.9,5.9c5.5,6.7,7,12.9,10.9,25.3
				c3.4,11.1,5.1,16.6,5.9,18.5c6,13.3,11.1,15.1,12.2,24.9c0.6,5.3-0.7,7.2,1,12.6C869,438,870.7,439.5,874.8,445.8z"/>
			<path id="head_00000008148735067866619990000002638652495504282243_" class="st6" d="M830.1,390.3c-5,12.7-22.4,7.8-32.2,25.1
				c-5.8,10.4-3.7,19.3-12.2,24.6c-4.3,2.7-11,4.1-14.8,1.3c-2.9-2.1-3.8-6.1-5.5-13.5c-1.2-5.2-0.9-7.7-3-9.5
				c-3.3-2.8-7.5,0.1-9.5-2.3c-2-2.3,0.9-6.2,2.3-13.5c0.9-4.7,0.1-5.4,0-15.4c-0.2-12.1-0.2-18.1,1.3-21.7
				c3.4-7.7,10.9-11.4,18.1-14.8c6.3-3,14.9-7.2,24.4-5.9C819.3,347.4,836,375.1,830.1,390.3z"/>
			<path id="right_arm_00000100364329999723679710000000107810376313644181_" class="st7" d="M870.6,473.2
				c2.7,5.8,2.6,12.1,2.3,24.4c-0.3,10.4-0.6,20.4-3.6,33.7c-2.7,11.8-4,10.3-9.1,28.4c-3.8,13.3-6.1,21.5-6.5,32.2
				c-0.3,8.9,1,11.3,2.5,23.6c2.8,24.2-0.2,33.6,0.8,65.7c0.5,15.5,1.2,12.3,1.1,21.7c0,7.7-0.5,9.1,1,11c4.9,6.7,18-0.3,25.5,7.4
				c2.7,2.7,4.1,6.7,5.3,10.3c1.6,4.5,2.1,8.5,5.7,12.4c0.6,0.6,2,1.2,1.9,1.9c-0.2,0.9-2.3,0.5-4,1.5c-3,1.8-1.7,6.3-3.6,11
				c-2.2,5.4-8,9.4-9.9,8.4c-2.8-1.6,0.6-15.9,1-17.1c0.9-3.4,1.6-5.2,0.6-6.9c-1.6-2.6-5.2-1.6-10.3-3.8c-3.8-1.6-4.7-3.6-8.2-6.1
				c-8.1-5.8-13-6-16.9-8.4c-8.2-4.9-6.3-15.7-10.7-45.7c-3.5-24.3-5.3-36.4-8.4-42.8c-2.3-4.8-6.6-12.6-5.5-22.3
				c0.2-1.6,0.4-2.2,2.1-11.2c0,0,1.4-7.3,2.5-13.5c2.4-13.6,3.1-30.1,3.2-32.4c1.2-28.7-4.2-31.1-2.5-49.9
				c2-21.1,11.7-48.9,24.6-49.9C859.5,456.3,867.4,466.5,870.6,473.2z"/>
			<path id="right_sleeve_00000048461667730095654120000014471247776023632826_" class="st10" d="M871.2,471.7
				c-1.3-2.3-8.5-15-18.8-14.8c-8.5,0.1-14.4,8.7-17.5,13.3c-14.4,21.1-10.7,47.8-8.2,60c5.4-1,13.2-1.7,22.3-0.6
				c8.2,1,14.8,3.2,19.6,5.1c1.6-4.7,3.8-12.1,5.3-21.3C876.2,498.9,878.5,484.6,871.2,471.7z"/>
			<path class="st12" d="M838.1,467.9c-1.7,13.8-7.7,16.1-7.6,26.7c0,8.4,3.8,8.6,3.4,17.5c-0.4,8.5-3.9,10.1-4.8,18.1
				c-1.1,10.8,6.9,13.6,4.6,20.9c-1.9,6.3-7.6,5.8-10.1,13.5c-2.1,6.4,0.5,10.8-1.9,12.2c-2.9,1.7-7-4.6-15.2-4.2
				c-3.2,0.2-3.4,1.2-6.3,1c-6.2-0.5-10.3-5.9-10.9-6.7c-3.6-5-3.4-10.5-3.2-14.1c0.6-10.8,5.9-11.7,6.9-21.7c0.8-8.5-3-8.6-2.7-19
				c0.4-10.5,4.3-12.1,2.7-18.8c-1.8-7.3-6.9-7.6-8.2-15c-1-6.2,2.7-7.4,2.3-13.9c-0.6-10.1-7.2-10.9-12.2-24.4
				c-0.2-0.6-0.2-0.6-4.9-23c-2.3-11-2.4-11.5-2.7-13.1c-1.8-12.5,0.3-15-1.3-23c-2.4-11.7-8.2-12.9-7.8-18.5
				c0.9-13,33.8-30.5,56.4-20.9c25.3,10.6,34.3,53.2,29,76.3c-1.6,6.9-6.1,19.7-5.5,37.5C838.2,460.2,838.7,462.8,838.1,467.9z"/>
			<path class="st13" d="M734.1,665.3c-4.1,15.9-50.2,24.2-64.9,8.2c-6.3-6.9-3.1-14.1-11.8-25.3c-8.4-10.8-16.1-10.2-25.3-17.6
				c-20.8-16.7-26.4-55.9-13.1-66.9c6.8-5.6,19.5-4.5,27.6,0c6,3.4,9,8.3,11.2,11.8c8,12.5,19.5,22.5,28.6,34.3
				C716.8,649,737,654.2,734.1,665.3z"/>
			<path class="st14" d="M822.3,725.9c8.1-9.2,8.8-23.8,9.5-37.9c0.3-6.6-0.5-15.2-2.3-32.2c-2.1-20-3.3-22.3-4.6-24.2
				c-1.7-2.3-6.4-8-36-12.4c-23.7-3.5-35.5-5.3-42.3-0.4c-12.7,9.3-7.3,28.3-19.2,32.9c-5,2-8.1-0.6-19.4-3.6
				c-10.8-2.9-10.9-1.4-43.2-4.6c-28.7-2.8-30-4.1-41.3-3.6c-16.5,0.8-25.7,1.2-32.2,7.8c-6.6,6.7-5.6,14.9-5.9,43.8
				c-0.3,32.4-1.6,24.6-1.3,46.1c0.6,40.9,4.9,41.4,1.9,60.5c-3,17.9-6.7,33.9-4.9,37.1c5.5,3.4,27,3,31.6-2.9c0-3.4,0-8.7,0-15.2
				c-0.1-26.4,0.3-52.8,0-79.2c-0.4-30.9-1.2-35.6,3.2-39.2c8.7-7,22.6,2.3,55,13.9c5.5,2,45.9,15.9,92.7,20.7
				C808.8,738.2,818.4,730.3,822.3,725.9z"/>
			<path class="st7" d="M639.7,707.8c-2.8-7.2-11.2-13.4-16.7-11.8c-4.5,1.3-6.7,10.7-11.3,29.4c-1,4-1.9,8.2-2.7,13.4
				c-1.8,12.1-2.6,18.2,0,20.9c6.1,6.3,28.4-0.6,32-12.2c1.4-4.7-1.5-5.9-2.3-15.8C637.8,718.6,642.5,715.1,639.7,707.8z"/>
			<path class="st13" d="M654.8,668.9c4-27.7,4.9-35.8,1.3-47c-3.4-10.4-6.4-10.1-10.5-23c-6.4-20.2-2-30.3-9.5-35.6
				c-6-4.3-16.1-2.9-22.1,1.7c-5.2,4-7.4,10.6-8.2,36.2c-0.5,18.2,0.1,32.5,0.6,42.1c2.1,42.3,3.3,38.7,2.7,50.1
				c-0.6,7.2-3.4,31.2,0,35.2c3.6,3.2,24.9,1.7,31.2-1.7C646,711.8,647.9,693.9,654.8,668.9z"/>
			<path class="st10" d="M581.4,874c1.2-0.5,3-1.2,5.5-1.8c3.7-0.9,6.5-0.8,10.8-1.6c0.2,0,4.2-0.7,8-2.1c4.5-1.6,11-3.9,14-8.7
				c1.3-2.1,1.5-4.1-1-19.4c-2.6-16.3-3.2-18.6-5.7-20.6c-2.3-1.9-6.2-2.6-14.1-3.8c-7.5-1.2-11.3-1.8-14.5-1
				c-6.9,1.8-8.4,7.3-15.8,15.8c-6.8,7.8-13.5,12.3-22.7,18.5c-14.1,9.4-19.9,9.7-23.4,17.3c-2,4.4-3.4,11.4,0,15.2
				c1,1.1,2.8,2.4,21.1,1.3c11.8-0.7,17.6-1.7,22.7-3c4.2-1.2,6.5-1.8,9.4-3.4C577.5,876,578.9,875.1,581.4,874z"/>
			<path class="st9" d="M668.6,762c-0.2-3.1-1.7-4.2-11.6-15.4c-10.5-11.9-11.4-13.8-15-14.7c-4.4-1.1-5.3,1-17.1,3
				c-11.3,1.9-12.2,0.3-15.4,2.1c-5.1,2.9-6,9-8.6,32.2c-3.5,31.2-3.5,33.7-6.7,38.5c-2.9,4.4-6.7,8.1-7.8,15.2
				c-0.2,1.4-1.7,11.1,2.7,14.3c7.1,5.2,28.3-7.3,42.1-22.8c13-14.7,8.9-20.3,23.6-34.6C662.4,772.3,669,768.5,668.6,762z"/>
		</g>
		<g id="Lager_10" class="st2">
		</g>
		<g id="Lager_9" class="st2">
		</g>
		<g id="Lager_3" class="st2">
		</g>
		<g id="Lager_4_00000111153882049251188330000010774792128013754809_">
			<path class="st15" d="M848.9,759.6c-10.9-14.8-31.9-13-96.7-9.9c-90.6,4.3-99.7,3-115.7,13.9c-30,20.3-53,61.9-41.1,82.2
				c4.4,11,99.8,7.2,130.2,8.2c29.1,2.3,119.4,3.2,126.4-2.3c5.2-7.5,4.9-19.8,4.4-44.4C855.8,781.5,855.5,768.5,848.9,759.6z"/>
			<path class="st16" d="M860.2,770c8.5-7.6,13.9-22.2,9.3-32c-4.4-9.4-17-10.1-19.2-20.6c-1.6-7.4,3.9-10.8,1.7-15.2
				c-4.1-8.5-29.4-4.2-41.5-1.9c-39.1,7.5-47.2,16.1-66.1,19.4c-49.4,8.8-70.9-36-103.9-24.4c-33.4,11.8-49.7,70.6-35.6,84
				c5.6,5.3,13.2,0.9,35.6-2.7c37.4-6,40.4,2.3,111.7,1.3c42.4-0.6,32.7-3.4,58.3-2.7C837,776.1,849.9,779.2,860.2,770z"/>
			<path class="st17" d="M820,716.4c0.3-0.2,1.4-1,3-1.6c11.3-4.4,26.7,5.6,25.9,9.1c-0.5,1.9-6.8-0.3-17.7,2.1
				c-10.4,2.3-17.2,7-19.8,8.6c-7.7,4.6-23.5,8.4-80.7-3c-42.8-8.5-65.1-16.9-84-6.1c-4.8,2.7-11.3,7.8-10.3,10.7
				c1.1,3.3,10.7-0.2,19.4,6.3c1.3,1,3.9,4,9.1,9.9c5,5.7,5.3,6.5,5.3,7.4c0.2,5.6-9.5,10.5-17.1,14.3c-5.8,2.9-10,4.3-11.8,4.9
				c-19.9,7.6-27.6,38.7-28.7,38.3c-1.4-0.6,25.5-40.2,13.9-73.9c-3.1-8.9-8.4-16.1-5.9-26.3c3.1-12.7,16-19.7,19.8-21.7
				c23.9-12.8,46.6-3.3,90.2,5.9C742.6,703.8,806.5,725.7,820,716.4z"/>
		</g>
		<g id="PurpleYellow_00000080205687486506828740000006012820456355870093_">
			<path id="left_bicep_00000172410598552482113530000003660321905814967216_" class="st18" d="M757.7,509.3
				c8.8-42.1,23.9-60.2,16.8-66.7c-4.7-4.2-16.3-1-23.6,4.8c-12,9.4-8.8,22.6-16.4,63.2c-3.7,19.9-5.8,23.6-8.2,42.3
				c-2.4,19-5,40.4,2.9,44c4,1.8,9.1-1.6,10.1-2.3c9.7-6.5,9.1-21.2,10.3-37.1C750.5,543.9,752.9,532.4,757.7,509.3z"/>
			<path id="left_forearm_00000149349942507863529080000004749221140284416158_" class="st19" d="M709.4,530.4
				c-8.4-14.4-8.1-19.7-15.6-25.1c-4.5-3.3-11.2-6.1-13.3-4c-1.4,1.4-0.6,4.5,5.7,18.7c6.2,14,6.7,13.9,9.3,20.4
				c5.3,13.2,3.8,14.9,8.8,25.5c1,2.2,4.2,7.3,10.5,17.3c7.9,12.7,10.9,16.7,14.7,16.6c0.9,0,2.7-1,6.3-3c5.5-3.1,8.3-4.6,9.1-6.3
				c0.6-1.1,1.2-3-1.9-12.2c-2.7-7.9-4-11.8-7.2-16.4c-3.8-5.4-6.3-6-11.6-11C717.8,544.8,714.6,539.3,709.4,530.4z"/>
			<path id="thumb_00000004543024247823391510000006560665053430968482_" class="st19" d="M708.1,483.5c0.6,1.6-0.4,3.9-1.3,4
				c-0.5,0.1-0.8-0.6-2.1-2.1c-2.3-2.7-3.4-3.2-3.2-3.6C701.8,480.9,707,480.9,708.1,483.5z"/>
			<path class="st20" d="M712.1,498.4c-1.3,1.7-6.1,0.9-10.3,0.2c-2-0.3-3.4-0.6-4.9-1.5c-2.8-1.7-3.8-4.3-4.9-6.5
				c-2-3.8-5.2-6.9-7.8-10.3c-9.8-12.9-14.7-19.4-17.7-22.8c-2.3-4.2-7.4-9.7-8.4-13.9c0.2-0.6,0.9-1.4,1.9-1.9
				c0.7-0.4,1.8-0.8,5.7-0.2c1.2,0.2,3.2,0.5,4.6,1c2.5,0.4,8,7.7,8.8,9.1c3.8,7.4,10,13.3,14.8,20.2
				C705.9,489,714,495.7,712.1,498.4z"/>
			<path id="Fingers_00000098918946157907342460000015411750397204583068_" class="st19" d="M674.7,493.8c0.4,1.8,3.4,1.9,3.8,4.4
				c0.2,1.4-0.6,2.1-0.2,3.4c0.5,1.6,2.2,2.3,2.9,2.7c5.3,2.6,5.8,7.5,14.3,12.9c2.2,1.4,5.7,3.7,6.9,2.7c1.9-1.7-5.3-10.5-2.5-13.9
				c0.8-1,1.6-0.5,7-2.5c4.7-1.7,5.1-2.4,5.1-2.9c0.2-1.4-2.1-2.2-4.8-4.9c-2.1-2.1-2.2-3.1-4.6-6.7c-4.1-6.2-6.1-9.3-8.8-9.7
				c-1.8-0.3-2.4,0.6-12,7.4C677.1,490.2,674.4,492,674.7,493.8z"/>
			<path id="torso_00000133491878685736355580000013939716798420416947_" class="st21" d="M835.4,497.6c5.3-23.9,7.1-27.3,9.9-30.5
				c5.6-6.3,11-6.4,10.7-8.6c-0.7-5.3-33.7,5.1-66.8-9.3c-10.5-4.6-20.1-11.3-24.4-7.6c-2.9,2.5-0.8,7.3-1.9,20.2
				c-0.5,5.9-1,5.4-3,17.3c-2.7,16.1-2.1,18.5-4.2,29.1c-2.3,11.8-3.5,10.7-5.9,21.9c-4,18.5-3.7,34.3-3.4,40
				c0.7,15.5,3.1,16.7,2.1,28.7c-1.1,12.8-4.3,16.1-1.7,20c5.1,7.4,19.3-1.6,41.5,2.7c21.2,4,32.4,16.8,37.7,12.2
				c2.6-2.3,0.8-6.3,1-16.6c0.1-10,1.9-13.6,4.8-27.8c5.8-29,8.8-43.4,4.8-56.2c-1.3-4.3-3.8-10.3-3.8-19.2
				C832.6,511.3,832.8,509.3,835.4,497.6z"/>
			<path id="left_sleeve_00000109013622758212075430000006020303749255360691_" class="st22" d="M766.5,440.7
				c-3.4-2.6-13.2,2.8-18.8,9.7c-3.5,4.3-3.8,7.2-8.4,25.7c-2.9,12.8-4.6,24.6-3.2,25.5c2,1.4,4.1-1,11-0.8
				c6.8,0.2,8.2,2.7,10.7,1.7c1.3,0.4,1.6-14.7,3.8-32.7C763.8,451.5,770,443.3,766.5,440.7z"/>
			<path class="st23" d="M781.2,463.7c3.5-10.4-6.1-22-10.3-28c-22.1-31.9-7.6-76.2-13.1-76.7c-3.9-0.4-9.1,22.1-10.9,36.5
				c-2,16.2-3.4,28,3.6,35.8c2.9,3.2,7.2,5.6,7.6,10.5c0.4,3.9-2,5.3-4,10.7c-3.3,9,1.2,11.3-1.3,20c-2.8,9.7-9.3,10.1-9.1,17.5
				c0.2,5.9,4.3,7.7,3.2,13.1c-0.9,4.5-4,4.7-5.5,9.5c-1.7,5.4,1.3,7.7,1.5,13.9c0.5,11.8-9.9,17.8-7.4,21.5c2,3,10.8,1.9,16.8-2.1
				c4.6-3.1,6.5-7.2,10.1-15.2c4.4-9.7,3.1-11.3,7.2-20c4.6-9.7,6.9-9.2,7.6-14.5c1.1-8.5-4.6-11.2-3.2-19.4
				C775,470.3,779.3,469.3,781.2,463.7z"/>
			<path class="st23" d="M874.8,445.8c5,7.8,7.4,11.7,8.6,16.2c2.1,8.5-2.1,9.2-0.6,19.8c1.2,8.3,4,9.6,4.2,18.1
				c0.1,5.5-1,5.7-0.6,11c0.7,8.1,3.4,8.8,3,14.7c-0.4,6.1-3.5,6.8-3,12.4c0.4,5.3,3.3,6.1,2.9,9.5c-0.7,5.4-8.1,4.8-13.9,11.6
				c-7.2,8.5-3.9,18.9-9.1,20.4c-2.6,0.8-5.8-1.2-7.4-3.4c-4.3-5.9,0.7-16.3,2.5-20.2c12.5-27.6,16.8-76.7,2.1-89.3
				c-7.2-6.2-17.5-9.5-17.5-9.5c-4.1-1.3-6.6-1.6-7.8-1.9c-18.2-4.4-6.2-80.9-33.9-98c-17.8-11-43.5,7.9-46.4,1.9
				c-2.9-5.8,19-29.6,42.1-28c15.5,1.1,29.9,13.4,32,15.2c1.7,1.4,3.7,3.2,5.9,5.9c5.5,6.7,7,12.9,10.9,25.3
				c3.4,11.1,5.1,16.6,5.9,18.5c6,13.3,11.1,15.1,12.2,24.9c0.6,5.3-0.7,7.2,1,12.6C869,438,870.7,439.5,874.8,445.8z"/>
			<path id="head_00000012436771739721765290000006416735070267008950_" class="st18" d="M830.1,390.3c-5,12.7-22.4,7.8-32.2,25.1
				c-5.8,10.4-3.7,19.3-12.2,24.6c-4.3,2.7-11,4.1-14.8,1.3c-2.9-2.1-3.8-6.1-5.5-13.5c-1.2-5.2-0.9-7.7-3-9.5
				c-3.3-2.8-7.5,0.1-9.5-2.3c-2-2.3,0.9-6.2,2.3-13.5c0.9-4.7,0.1-5.4,0-15.4c-0.2-12.1-0.2-18.1,1.3-21.7
				c3.4-7.7,10.9-11.4,18.1-14.8c6.3-3,14.9-7.2,24.4-5.9C819.3,347.4,836,375.1,830.1,390.3z"/>
			<path id="right_arm_00000039818716040164754680000006977765602022117539_" class="st19" d="M870.6,473.2
				c2.7,5.8,2.6,12.1,2.3,24.4c-0.3,10.4-0.6,20.4-3.6,33.7c-2.7,11.8-4,10.3-9.1,28.4c-3.8,13.3-6.1,21.5-6.5,32.2
				c-0.3,8.9,1,11.3,2.5,23.6c2.8,24.2-0.2,33.6,0.8,65.7c0.5,15.5,1.2,12.3,1.1,21.7c0,7.7-0.5,9.1,1,11c4.9,6.7,18-0.3,25.5,7.4
				c2.7,2.7,4.1,6.7,5.3,10.3c1.6,4.5,2.1,8.5,5.7,12.4c0.6,0.6,2,1.2,1.9,1.9c-0.2,0.9-2.3,0.5-4,1.5c-3,1.8-1.7,6.3-3.6,11
				c-2.2,5.4-8,9.4-9.9,8.4c-2.8-1.6,0.6-15.9,1-17.1c0.9-3.4,1.6-5.2,0.6-6.9c-1.6-2.6-5.2-1.6-10.3-3.8c-3.8-1.6-4.7-3.6-8.2-6.1
				c-8.1-5.8-13-6-16.9-8.4c-8.2-4.9-6.3-15.7-10.7-45.7c-3.5-24.3-5.3-36.4-8.4-42.8c-2.3-4.8-6.6-12.6-5.5-22.3
				c0.2-1.6,0.4-2.2,2.1-11.2c0,0,1.4-7.3,2.5-13.5c2.4-13.6,3.1-30.1,3.2-32.4c1.2-28.7-4.2-31.1-2.5-49.9
				c2-21.1,11.7-48.9,24.6-49.9C859.5,456.3,867.4,466.5,870.6,473.2z"/>
			<path id="right_sleeve_00000054984867408327929780000013309435177509249431_" class="st22" d="M871.2,471.7
				c-1.3-2.3-8.5-15-18.8-14.8c-8.5,0.1-14.4,8.7-17.5,13.3c-14.4,21.1-10.7,47.8-8.2,60c5.4-1,13.2-1.7,22.3-0.6
				c8.2,1,14.8,3.2,19.6,5.1c1.6-4.7,3.8-12.1,5.3-21.3C876.2,498.9,878.5,484.6,871.2,471.7z"/>
			<path class="st24" d="M838.1,467.9c-1.7,13.8-7.7,16.1-7.6,26.7c0,8.4,3.8,8.6,3.4,17.5c-0.4,8.5-3.9,10.1-4.8,18.1
				c-1.1,10.8,6.9,13.6,4.6,20.9c-1.9,6.3-7.6,5.8-10.1,13.5c-2.1,6.4,0.5,10.8-1.9,12.2c-2.9,1.7-7-4.6-15.2-4.2
				c-3.2,0.2-3.4,1.2-6.3,1c-6.2-0.5-10.3-5.9-10.9-6.7c-3.6-5-3.4-10.5-3.2-14.1c0.6-10.8,5.9-11.7,6.9-21.7c0.8-8.5-3-8.6-2.7-19
				c0.4-10.5,4.3-12.1,2.7-18.8c-1.8-7.3-6.9-7.6-8.2-15c-1-6.2,2.7-7.4,2.3-13.9c-0.6-10.1-7.2-10.9-12.2-24.4
				c-0.2-0.6-0.2-0.6-4.9-23c-2.3-11-2.4-11.5-2.7-13.1c-1.8-12.5,0.3-15-1.3-23c-2.4-11.7-8.2-12.9-7.8-18.5
				c0.9-13,33.8-30.5,56.4-20.9c25.3,10.6,34.3,53.2,29,76.3c-1.6,6.9-6.1,19.7-5.5,37.5C838.2,460.2,838.7,462.8,838.1,467.9z"/>
			<path class="st25" d="M734.1,665.3c-4.1,15.9-50.2,24.2-64.9,8.2c-6.3-6.9-3.1-14.1-11.8-25.3c-8.4-10.8-16.1-10.2-25.3-17.6
				c-20.8-16.7-26.4-55.9-13.1-66.9c6.8-5.6,19.5-4.5,27.6,0c6,3.4,9,8.3,11.2,11.8c8,12.5,19.5,22.5,28.6,34.3
				C716.8,649,737,654.2,734.1,665.3z"/>
			<path class="st26" d="M822.3,725.9c8.1-9.2,8.8-23.8,9.5-37.9c0.3-6.6-0.5-15.2-2.3-32.2c-2.1-20-3.3-22.3-4.6-24.2
				c-1.7-2.3-6.4-8-36-12.4c-23.7-3.5-35.5-5.3-42.3-0.4c-12.7,9.3-7.3,28.3-19.2,32.9c-5,2-8.1-0.6-19.4-3.6
				c-10.8-2.9-10.9-1.4-43.2-4.6c-28.7-2.8-30-4.1-41.3-3.6c-16.5,0.8-25.7,1.2-32.2,7.8c-6.6,6.7-5.6,14.9-5.9,43.8
				c-0.3,32.4-1.6,24.6-1.3,46.1c0.6,40.9,4.9,41.4,1.9,60.5c-3,17.9-6.7,33.9-4.9,37.1c5.5,3.4,27,3,31.6-2.9c0-3.4,0-8.7,0-15.2
				c-0.1-26.4,0.3-52.8,0-79.2c-0.4-30.9-1.2-35.6,3.2-39.2c8.7-7,22.6,2.3,55,13.9c5.5,2,45.9,15.9,92.7,20.7
				C808.8,738.2,818.4,730.3,822.3,725.9z"/>
			<path class="st19" d="M639.7,707.8c-2.8-7.2-11.2-13.4-16.7-11.8c-4.5,1.3-6.7,10.7-11.3,29.4c-1,4-1.9,8.2-2.7,13.4
				c-1.8,12.1-2.6,18.2,0,20.9c6.1,6.3,28.4-0.6,32-12.2c1.4-4.7-1.5-5.9-2.3-15.8C637.8,718.6,642.5,715.1,639.7,707.8z"/>
			<path class="st25" d="M654.8,668.9c4-27.7,4.9-35.8,1.3-47c-3.4-10.4-6.4-10.1-10.5-23c-6.4-20.2-2-30.3-9.5-35.6
				c-6-4.3-16.1-2.9-22.1,1.7c-5.2,4-7.4,10.6-8.2,36.2c-0.5,18.2,0.1,32.5,0.6,42.1c2.1,42.3,3.3,38.7,2.7,50.1
				c-0.6,7.2-3.4,31.2,0,35.2c3.6,3.2,24.9,1.7,31.2-1.7C646,711.8,647.9,693.9,654.8,668.9z"/>
			<path class="st22" d="M581.4,874c1.2-0.5,3-1.2,5.5-1.8c3.7-0.9,6.5-0.8,10.8-1.6c0.2,0,4.2-0.7,8-2.1c4.5-1.6,11-3.9,14-8.7
				c1.3-2.1,1.5-4.1-1-19.4c-2.6-16.3-3.2-18.6-5.7-20.6c-2.3-1.9-6.2-2.6-14.1-3.8c-7.5-1.2-11.3-1.8-14.5-1
				c-6.9,1.8-8.4,7.3-15.8,15.8c-6.8,7.8-13.5,12.3-22.7,18.5c-14.1,9.4-19.9,9.7-23.4,17.3c-2,4.4-3.4,11.4,0,15.2
				c1,1.1,2.8,2.4,21.1,1.3c11.8-0.7,17.6-1.7,22.7-3c4.2-1.2,6.5-1.8,9.4-3.4C577.5,876,578.9,875.1,581.4,874z"/>
			<path class="st21" d="M668.6,762c-0.2-3.1-1.7-4.2-11.6-15.4c-10.5-11.9-11.4-13.8-15-14.7c-4.4-1.1-5.3,1-17.1,3
				c-11.3,1.9-12.2,0.3-15.4,2.1c-5.1,2.9-6,9-8.6,32.2c-3.5,31.2-3.5,33.7-6.7,38.5c-2.9,4.4-6.7,8.1-7.8,15.2
				c-0.2,1.4-1.7,11.1,2.7,14.3c7.1,5.2,28.3-7.3,42.1-22.8c13-14.7,8.9-20.3,23.6-34.6C662.4,772.3,669,768.5,668.6,762z"/>
		</g>
		<g id="Lager_10_00000085968394869449500120000015058801599568648107_" class="st2">
		</g>
		<g id="Lager_9_00000179623863446896280900000013627326931834301363_" class="st2">
		</g>
		<g id="Lager_3_00000013159644175811458840000015631894855464794303_">
		</g>
	</g>
</g>
</svg>
