<?xml version="1.0" encoding="utf-8"?>
<!-- Generator: Adobe Illustrator 27.0.1, SVG Export Plug-In . SVG Version: 6.00 Build 0)  -->
<svg version="1.1" xmlns="http://www.w3.org/2000/svg" xmlns:xlink="http://www.w3.org/1999/xlink" x="0px" y="0px"
	 viewBox="0 0 1000 1000" style="enable-background:new 0 0 1000 1000;" xml:space="preserve">
<style type="text/css">
	.st0{fill:#F4E4E2;}
	.st1{fill:#F3E4E2;}
	.st2{display:none;}
	.st3{display:inline;fill:#F6ECEB;}
	.st4{display:inline;fill:#F3E4E2;}
	.st5{display:inline;fill:#F4E5E3;}
	.st6{display:inline;fill:#F4E4E2;}
</style>
<g id="Lager_1">
	<path class="st0" d="M623.5,462.1c-69.1-23-91-52.7-91-123.4c0-70.3-0.3-140.7,0-211C532.9,47.2,574,6.5,653.8,6.5
		c67.6,0,135.2-0.2,202.7,0c71.9,0.2,129.3,54.7,131,126.6c1.6,67.5,4.8,135.5-0.9,202.6c-5.7,66.8-35,133-106.3,126.5
		C794.7,462.2,709.1,462.1,623.5,462.1z M913.6,238c0-33.1,0.3-66.2-0.1-99.3c-0.5-36.9-23-64.2-59.5-65.2
		c-67.5-2-135.1-1.4-202.7-0.2c-25.5,0.5-44.2,10.8-44.9,42.2c-1.5,71.4-5.9,142.7-7.4,214.1c-0.9,42.1,23.6,65.8,65.7,66.1
		c63.4,0.4,127-2.7,190.2,1.1c43.8,2.6,56.5-19.7,58.1-55.4C914.7,307,913.4,272.5,913.6,238z"/>
	<path class="st1" d="M540.7,761.2c0-40-0.8-80.1,0.2-120.1c1.7-70.8,44.5-112.4,114.8-112.7c62.1-0.2,124.2-0.1,186.3,0
		c90.9,0,146.2,54.8,146.2,145c0,63.5,0.1,127,0,190.5c-0.2,86.2-46.9,135.3-127.8,129.3c-64.5-4.8-129.7-0.8-194.5-1
		c-84.2-0.2-124.9-40.4-125.1-123.3C540.6,833,540.6,797.1,540.7,761.2z M761,602.8c-27.6,0-55.1,0-82.7,0
		c-55.5,0.1-70.2,13.9-71.2,70.6c-1,62-0.6,124.1-0.2,186.1c0.3,42.3,23.7,65.9,65.8,66.2c60.7,0.5,121.3,0.2,182,0.1
		c50.8-0.1,66.4-15.1,66.9-66c0.6-63.4,0.5-126.8,0-190.2c-0.3-42.6-23.5-66-65.5-66.7C824.4,602.4,792.7,602.8,761,602.8z"/>
	<path class="st0" d="M10.4,761.9c0-41.3-0.5-82.7,0.1-124c0.9-67.1,44.2-109.4,111.4-109.5c63.4-0.1,126.8,0,190.1,0
		c89.3,0,145.9,56.3,145.9,145.2c0,64.8,2.9,129.7-1,194.2c-2.9,48.2-14.4,96-67.7,117.3c-3.8,1.5-7.6,4.8-11.3,4.7
		c-96.1-0.9-192.7,3.7-287.9-5.6c-58.6-5.7-79.3-43.6-79.5-102.4C10.3,841.8,10.4,801.9,10.4,761.9z M234,925.8
		c30.3,0,60.6,0.1,90.9,0c48.4-0.2,64.6-13.6,66-62.8c2-64.7,1.5-129.4,0.2-194.1c-0.8-43.3-26.5-65.9-71.3-66.1
		c-60.6-0.2-121.2-0.1-181.8,0c-50.1,0.1-60.2,8.7-61.1,59.6c-1.3,70.2-0.6,140.4-0.3,210.7c0.1,35.4,18.7,52.9,54,52.8
		C165.1,925.8,199.5,925.8,234,925.8z"/>
	<path class="st1" d="M101.6,462.2c-56.5-10.1-90.9-49.1-91.1-104.3c-0.3-80.1-0.5-160.1,0-240.2C11,41.3,46.2,6.6,122.1,6.5
		c69-0.1,138.1-0.3,207.1,0.1c70.5,0.4,128.2,58.3,128.6,128.9c0.3,70.4,0.7,140.8-0.1,211.2c-0.7,65-41,111-99.2,115.5
		C272.8,462.1,187.2,462.2,101.6,462.2z M234.8,395.8c27.5,0,55,0,82.6,0c58.6,0,73.1-13.4,73.9-71.7c0.9-59.2,0.6-118.3,0.1-177.5
		c-0.5-49.8-23.7-73.2-73.2-73.7c-59.2-0.6-118.3-0.3-177.5-0.1C93.1,73,77.3,88.5,76.8,137.6c-0.7,67.4,0,134.9-0.3,202.3
		c-0.1,37.2,17.5,56.1,55,56C166,395.7,200.4,395.8,234.8,395.8z"/>
</g>
<g id="Lager_4" class="st2">
	<path class="st3" d="M656.9,259.7c20.7,0.3,40.2,5.8,59.9,11.5c13,3.8,26.3,7.5,39.7,8.3c10.6,0.7,21.5-2.8,32.2-5
		c7.3-1.5,14.3-4.3,21.6-5.9c1.6-0.4,3.7,1.5,5.6,2.4c-1,2-1.7,5.3-3.2,5.8c-18.3,5.7-36.6,12.9-56.1,12c-11-0.5-21.9-3.2-32.6-5.7
		c-16.3-3.8-32.2-9.2-48.6-12.4c-9.2-1.8-19.1-0.6-28.6-0.7c-1.8,0-3.9,0.6-5.4,0c-1.7-0.7-4.1-2.7-4-3.9c0.2-1.8,2.2-4.4,3.8-4.7
		C646.3,260.2,651.6,260.1,656.9,259.7z"/>
	<path class="st3" d="M220.5,297.8c-13.3-1.5-23.8-2.5-34.3-4c-1.5-0.2-2.7-2.6-4.1-4c1.5-1.3,2.9-3.6,4.5-3.6
		c5.6-0.1,11.3,0.2,16.8,0.9c19.7,2.6,38.7,0,57-7.3c22.8-9.1,46.2-16.5,70.3-21.4c5.6-1.2,11.5-1.3,17.3-1.2c1.7,0,3.3,2.4,4.9,3.6
		c-1.4,1.4-2.5,3.7-4.1,4c-8.1,1.6-16.3,2.4-24.4,3.9c-24.5,4.4-47,14.9-70.6,22.2C242.2,294.5,229.9,295.9,220.5,297.8z"/>
</g>
<g id="Lager_3" class="st2">
	<path class="st4" d="M366.5,578.6c-102.7,0-205.4,0-308.2,0c-10,0-22.6,3.1-29.4-1.7C16.6,568.2,0.1,554.6,0,543
		c-0.1-10.5,18.9-21.9,30.8-31.1c4-3.1,12.2-1.1,18.4-1.1c210.5,0,420.9-0.2,631.4,0.4c12.7,0,28.6,3.4,37.2,11.5
		c7.1,6.6,11.5,27.2,6.7,33.1c-8.7,10.8-25.1,21.5-38.5,21.7C579.5,579.3,473,578.6,366.5,578.6z"/>
	<path class="st5" d="M700.7,247.1c79,0,158,0.2,237-0.1c21.8-0.1,43.9,2.9,44,28.9c0,26.1-18.9,39-45.3,39c-158,0-316,0.3-474-0.3
		c-22.1-0.1-44.4-5.4-43.5-34.8c1-28.6,21.2-32.9,44.8-32.8C542.8,247.4,621.8,247.1,700.7,247.1z"/>
	<path class="st4" d="M425.9,812.7c-121.7-0.2-243.4-0.3-365.1-0.5c-10,0-22,2.9-29.6-1.5c-10.6-6.2-25.7-19-24.6-27.1
		c1.5-11.4,14.6-23.3,25.7-30.5c7.1-4.6,19.5-1.4,29.5-1.4c101.6,0,203.3,0.4,304.9-0.4c19.8-0.1,39.5-4.5,59.2-6.9
		c7.6-10,15.2-20.1,22.7-30.1c0,0,0,0,0,0c27-15.2,56.3-9.4,61.9,17.7c6.9,33.7-0.2,70.9-5.2,106c-1.1,7.5-19.3,17.9-28.9,17.2
		c-9.5-0.7-18-13.9-26.9-21.6C441.6,826.6,433.7,819.6,425.9,812.7z"/>
	<path class="st4" d="M305.4,315.2c-85.3-0.1-170.6-0.4-256,0c-23.7,0.1-44-4.2-44.7-32.8c-0.7-31.1,20.7-35.4,46-35.2
		c75.3,0.5,150.6-0.2,225.8,0.4c20.4,0.2,34.8-0.7,40.4-26.5c2.3-10.7,25.2-26.8,33.5-24.1c12.5,4,27,21.3,28.9,34.7
		c4.3,29.5,3.8,60.4-0.1,90c-1.4,11.2-16.1,26.3-27.2,28.8c-8.6,1.9-21-12.9-31.7-20.3C315.4,325.1,310.4,320.2,305.4,315.2z"/>
	<path class="st4" d="M836.2,597.2c-16.2,15.6-33.1,44.9-48.3,44c-32.5-2-31.6-34.7-30.8-61.7c0.7-23.7-1.5-47.6,0.9-71.1
		c1.2-11.7,8.6-31.1,15.6-32.2c13.9-2.3,38.4,1.2,42.8,10.1c16.3,33.4,43.8,32,72.4,32c20,0,40.4-2.4,59.8,0.9
		c12.1,2.1,22.8,12.7,34.1,19.5c-9,14.1-15.8,37.8-27.5,40.5c-31,7.1-64,5.2-96.2,6.9c-9.7,0.5-19.5,1.5-29.2,2.2
		C831.9,591.3,834.1,594.3,836.2,597.2z"/>
	<path class="st6" d="M768.1,812.1c-61.4,0-122.9-0.9-184.2,0.4c-26.1,0.6-45.6-10.3-41.9-34.4c2-13,26.2-32,40.7-32.3
		c124-2.6,248.1-1.9,372.2-1.1c22.1,0.1,44.3,5.9,42.9,35.4c-1.4,28.6-21.9,32.3-45.4,32.1C890.9,811.8,829.5,812.1,768.1,812.1z"/>
</g>
<g id="Lager_2" class="st2">
	<path class="st6" d="M627.3,760.2c-13.7-26.4-24.4-55-41.6-78.8c-56.6-78.6-211.1-57.3-242.9,51.4c-6.5,22.3-17.7,36.4-43.9,33.9
		c-16.5-1.6-24-8.7-20.3-24.7C299.1,653.1,367,579.3,469.9,576c95.8-3.1,162.5,37.1,202.4,122.2c8.8,18.8,9.7,41.4,14.2,62.3
		C666.7,760.3,647,760.3,627.3,760.2z"/>
	<path class="st5" d="M486.3,327.8c66.1,0,100.9,37.4,106.5,99.8c4.7,53.2-54.6,111-108.7,108.2c-56.3-2.9-104.7-48.8-105.8-106
		C377,369.7,421.4,327.8,486.3,327.8z M550.1,432.8c0.2-38.9-27.4-68.4-64.7-69c-36-0.6-65.9,30.4-65.9,68.1
		c0,40.3,26.2,67.7,64.8,67.8C523.3,499.8,549.9,472.8,550.1,432.8z"/>
	<path class="st5" d="M905.6,436.7C905.3,493,855.8,542.2,799.7,541c-55.7-1.2-102.6-45.6-106.1-109.1c-3.1-56,48.4-104.4,106-104.1
		C862.9,328.2,906,372.5,905.6,436.7z M733.7,429.8c-0.4,41.6,25.7,69,66.4,69.8c36,0.8,63.7-27.6,64.2-65.7
		c0.5-42.7-20.1-64.4-61.7-64.8C756.4,368.7,734.1,388.3,733.7,429.8z"/>
	<path class="st5" d="M170.4,304.1c62.6-0.1,107.3,43.7,107,104.8c-0.3,53.6-52.1,107.2-105.1,108.5c-52.6,1.4-110-55-107.6-109.6
		C67.5,345.6,118.6,296,170.4,304.1z M236.1,409.8c0.4-41.3-24.9-69.5-63-70.2c-39.6-0.8-67,25.9-67.6,65.7
		c-0.5,41.6,27,71.1,66,70.6C208.5,475.4,235.7,447.6,236.1,409.8z"/>
	<path class="st5" d="M676.8,603.2c110-84.3,302.3-22,323.2,151.1c-19.6,2.6-39.5,5.2-54.3,7.1c-16.5-33.9-25.7-66.2-45.1-90.4
		c-43.7-54.5-105.1-65.7-168-43.9C699.3,638.7,692,619.5,676.8,603.2z"/>
	<path class="st5" d="M312.8,581.2c-17.1,28.5-35.6,40.8-70.6,31.1c-91.7-25.2-162.1,18.8-184.6,110.6c-9.9,40.4-9.9,40.4-48.1,34.6
		c-15.3-59.1,22.4-136.7,86.9-178.9C157.1,538.8,258.5,539.2,312.8,581.2z"/>
</g>
</svg>
