<?xml version="1.0" encoding="utf-8"?>
<!-- Generator: Adobe Illustrator 27.0.1, SVG Export Plug-In . SVG Version: 6.00 Build 0)  -->
<svg version="1.1" xmlns="http://www.w3.org/2000/svg" xmlns:xlink="http://www.w3.org/1999/xlink" x="0px" y="0px"
	 viewBox="0 0 600 600" style="enable-background:new 0 0 600 600;" xml:space="preserve">
<style type="text/css">
	.st0{display:none;}
	.st1{display:inline;}
	.st2{fill:#F3E3E1;}
	.st3{display:inline;fill:none;stroke:#F3E3E1;stroke-width:35;stroke-miterlimit:10;}
	.st4{display:inline;fill:none;stroke:#4A4474;stroke-width:60;stroke-miterlimit:10;}
</style>
<g id="Lager_1" class="st0">
	<g class="st1">
		<path class="st2" d="M230,62v192H38V62H230 M253,27H15C8.4,27,3,32.4,3,39v238c0,6.6,5.4,12,12,12h238c6.6,0,12-5.4,12-12V39
			C265,32.4,259.6,27,253,27L253,27z"/>
	</g>
	<g class="st1">
		<path class="st2" d="M530,364v192H338V364H530 M553,329H315c-6.6,0-12,5.4-12,12v238c0,6.6,5.4,12,12,12h238c6.6,0,12-5.4,12-12
			V341C565,334.4,559.6,329,553,329L553,329z"/>
	</g>
	<g class="st1">
		<path class="st2" d="M230,364v192H38V364H230 M253,329H15c-6.6,0-12,5.4-12,12v238c0,6.6,5.4,12,12,12h238c6.6,0,12-5.4,12-12V341
			C265,334.4,259.6,329,253,329L253,329z"/>
	</g>
	<g class="st1">
		<path class="st2" d="M530,62v192H338V62H530 M553,27H315c-6.6,0-12,5.4-12,12v238c0,6.6,5.4,12,12,12h238c6.6,0,12-5.4,12-12V39
			C565,32.4,559.6,27,553,27L553,27z"/>
	</g>
</g>
<g id="categories">
	<g>
		<g>
			<path class="st2" d="M246,53v192H54V53H246 M269,18H31c-6.6,0-12,5.4-12,12v238c0,6.6,5.4,12,12,12h238c6.6,0,12-5.4,12-12V30
				C281,23.4,275.6,18,269,18L269,18z"/>
		</g>
		<g>
			<path class="st2" d="M546,355v192H354V355H546 M569,320H331c-6.6,0-12,5.4-12,12v238c0,6.6,5.4,12,12,12h238c6.6,0,12-5.4,12-12
				V332C581,325.4,575.6,320,569,320L569,320z"/>
		</g>
		<g>
			<path class="st2" d="M246,355v192H54V355H246 M269,320H31c-6.6,0-12,5.4-12,12v238c0,6.6,5.4,12,12,12h238c6.6,0,12-5.4,12-12
				V332C281,325.4,275.6,320,269,320L269,320z"/>
		</g>
		<g>
			<path class="st2" d="M546,53v192H354V53H546 M569,18H331c-6.6,0-12,5.4-12,12v238c0,6.6,5.4,12,12,12h238c6.6,0,12-5.4,12-12V30
				C581,23.4,575.6,18,569,18L569,18z"/>
		</g>
	</g>
</g>
<g id="Lager_3" class="st0">
	<path class="st3" d="M449.5,526h-291c-0.2-7.9-0.3-67.7,48.6-108.5c39.1-32.6,83.7-31.5,94.4-31c10.3-1.1,55.8-4.8,96.5,26.7
		C451,454.2,449.7,519.3,449.5,526z"/>
	<path class="st3" d="M449.5,526h-291c-0.2-7.9-0.3-67.7,48.6-108.5c39.1-32.6,83.7-31.5,94.4-31c10.3-1.1,55.8-4.8,96.5,26.7
		C451,454.2,449.7,519.3,449.5,526z"/>
	<path class="st3" d="M449.5,526h-291c-0.2-7.9-0.3-67.7,48.6-108.5c39.1-32.6,83.7-31.5,94.4-31c10.3-1.1,55.8-4.8,96.5,26.7
		C451,454.2,449.7,519.3,449.5,526z"/>
</g>
<g id="group" class="st0">
	<path class="st3" d="M524,413.7c-40.7-31.5-86.2-27.8-96.5-26.7c-7.6-0.4-32.4-1-60.1,10.4c-32.1-14.2-61.8-11.7-69.9-10.9
		c-7.7-0.4-33.1-1.1-61.3,10.9c-31.6-13.6-60.7-11.2-68.7-10.4c-10.7-0.5-55.3-1.6-94.4,31c-48.9,40.8-48.8,100.6-48.6,108.5h260h31
		h260C575.7,519.8,577,454.7,524,413.7z"/>
	<path class="st4" d="M445.5,526h-291c-0.2-7.9-0.3-67.7,48.6-108.5c39.1-32.6,83.7-31.5,94.4-31c10.3-1.1,55.8-4.8,96.5,26.7
		C447,454.2,445.7,519.3,445.5,526z"/>
	<path class="st3" d="M445.5,526h-291c-0.2-7.9-0.3-67.7,48.6-108.5c39.1-32.6,83.7-31.5,94.4-31c10.3-1.1,55.8-4.8,96.5,26.7
		C447,454.2,445.7,519.3,445.5,526z"/>
	<path class="st3" d="M430,174.5c-24.9,0-46.7,13.5-58.4,33.6c-10.5-29.5-38.6-50.6-71.6-50.6s-61.2,21.1-71.6,50.6
		c-11.7-20.1-33.4-33.6-58.4-33.6c-37.3,0-67.5,30.2-67.5,67.5s30.2,67.5,67.5,67.5c28.1,0,52.1-17.1,62.3-41.5
		c12.6,24.6,38.2,41.5,67.7,41.5s55.1-16.9,67.7-41.5c10.2,24.4,34.2,41.5,62.3,41.5c37.3,0,67.5-30.2,67.5-67.5
		S467.3,174.5,430,174.5z"/>
	<circle class="st4" cx="300" cy="233.5" r="76"/>
	<circle class="st3" cx="300" cy="233.5" r="76"/>
</g>
<g id="Lager_5" class="st0">
	<g class="st1">
		<g>
			<path class="st2" d="M37,146c17.4,0,34.9,0,52.3,0c41.9,0,83.7,0,125.6,0c50.7,0,101.3,0,152,0c43.8,0,87.6,0,131.4,0
				c21.3,0,42.6,0.5,63.9,0c0.3,0,0.6,0,0.9,0c12.6,0,24.6-11,24-24c-0.6-13-10.5-24-24-24c-17.4,0-34.9,0-52.3,0
				c-41.9,0-83.7,0-125.6,0c-50.7,0-101.3,0-152,0c-43.8,0-87.6,0-131.4,0c-21.3,0-42.6-0.5-63.9,0c-0.3,0-0.6,0-0.9,0
				c-12.6,0-24.6,11-24,24C13.6,135,23.5,146,37,146L37,146z"/>
		</g>
	</g>
	<g class="st1">
		<g>
			<path class="st2" d="M37,324c17.4,0,34.9,0,52.3,0c41.9,0,83.7,0,125.6,0c50.7,0,101.3,0,152,0c43.8,0,87.6,0,131.4,0
				c21.3,0,42.6,0.5,63.9,0c0.3,0,0.6,0,0.9,0c12.6,0,24.6-11,24-24c-0.6-13-10.5-24-24-24c-17.4,0-34.9,0-52.3,0
				c-41.9,0-83.7,0-125.6,0c-50.7,0-101.3,0-152,0c-43.8,0-87.6,0-131.4,0c-21.3,0-42.6-0.5-63.9,0c-0.3,0-0.6,0-0.9,0
				c-12.6,0-24.6,11-24,24C13.6,313,23.5,324,37,324L37,324z"/>
		</g>
	</g>
	<g class="st1">
		<g>
			<path class="st2" d="M37,502c17.4,0,34.9,0,52.3,0c41.9,0,83.7,0,125.6,0c50.7,0,101.3,0,152,0c43.8,0,87.6,0,131.4,0
				c21.3,0,42.6,0.5,63.9,0c0.3,0,0.6,0,0.9,0c12.6,0,24.6-11,24-24c-0.6-13-10.5-24-24-24c-17.4,0-34.9,0-52.3,0
				c-41.9,0-83.7,0-125.6,0c-50.7,0-101.3,0-152,0c-43.8,0-87.6,0-131.4,0c-21.3,0-42.6-0.5-63.9,0c-0.3,0-0.6,0-0.9,0
				c-12.6,0-24.6,11-24,24C13.6,491,23.5,502,37,502L37,502z"/>
		</g>
	</g>
</g>
<g id="filter" class="st0">
	<g class="st1">
		<g>
			<path class="st2" d="M217,146c89.8,0,179.6,0,269.4,0c25.5,0,51,0,76.6,0c12.6,0,24.6-11,24-24c-0.6-13-10.5-24-24-24
				c-89.8,0-179.6,0-269.4,0c-25.5,0-51,0-76.6,0c-12.6,0-24.6,11-24,24C193.6,135,203.5,146,217,146L217,146z"/>
		</g>
	</g>
	<g class="st1">
		<g>
			<path class="st2" d="M37,146c28.7,0,57.3,0,86,0c12.6,0,24.6-11,24-24c-0.6-13-10.5-24-24-24c-28.7,0-57.3,0-86,0
				c-12.6,0-24.6,11-24,24C13.6,135,23.5,146,37,146L37,146z"/>
		</g>
	</g>
	<g class="st1">
		<g>
			<path class="st2" d="M481,324c27.3,0,54.7,0,82,0c12.6,0,24.6-11,24-24c-0.6-13-10.5-24-24-24c-27.3,0-54.7,0-82,0
				c-12.6,0-24.6,11-24,24C457.6,313,467.5,324,481,324L481,324z"/>
		</g>
	</g>
	<g class="st1">
		<g>
			<path class="st2" d="M37,324c94.1,0,188.3,0,282.4,0c26.5,0,53,0,79.6,0c12.6,0,24.6-11,24-24c-0.6-13-10.5-24-24-24
				c-94.1,0-188.3,0-282.4,0c-26.5,0-53,0-79.6,0c-12.6,0-24.6,11-24,24C13.6,313,23.5,324,37,324L37,324z"/>
		</g>
	</g>
	<g class="st1">
		<g>
			<path class="st2" d="M320,502c81,0,162,0,243,0c12.6,0,24.6-11,24-24c-0.6-13-10.5-24-24-24c-81,0-162,0-243,0
				c-12.6,0-24.6,11-24,24C296.6,491,306.5,502,320,502L320,502z"/>
		</g>
	</g>
	<g class="st1">
		<g>
			<path class="st2" d="M37,502c64,0,128,0,192,0c12.6,0,24.6-11,24-24c-0.6-13-10.5-24-24-24c-64,0-128,0-192,0
				c-12.6,0-24.6,11-24,24C13.6,491,23.5,502,37,502L37,502z"/>
		</g>
	</g>
	<g class="st1">
		<g>
			<path class="st2" d="M234.5,439c0,26.3,0,52.7,0,79c0,9.4,8.3,18.4,18,18c9.8-0.4,18-7.9,18-18c0-26.3,0-52.7,0-79
				c0-9.4-8.3-18.4-18-18C242.7,421.4,234.5,428.9,234.5,439L234.5,439z"/>
		</g>
	</g>
	<g class="st1">
		<g>
			<path class="st2" d="M447.5,260c0,26.3,0,52.7,0,79c0,9.4,8.3,18.4,18,18c9.8-0.4,18-7.9,18-18c0-26.3,0-52.7,0-79
				c0-9.4-8.3-18.4-18-18C455.7,242.4,447.5,249.9,447.5,260L447.5,260z"/>
		</g>
	</g>
	<g class="st1">
		<g>
			<path class="st2" d="M128.5,82c0,26.3,0,52.7,0,79c0,9.4,8.3,18.4,18,18c9.8-0.4,18-7.9,18-18c0-26.3,0-52.7,0-79
				c0-9.4-8.3-18.4-18-18C136.7,64.4,128.5,71.9,128.5,82L128.5,82z"/>
		</g>
	</g>
</g>
</svg>
