<?xml version="1.0" encoding="utf-8"?>
<!-- Generator: Adobe Illustrator 27.3.1, SVG Export Plug-In . SVG Version: 6.00 Build 0)  -->
<svg version="1.1" xmlns="http://www.w3.org/2000/svg" xmlns:xlink="http://www.w3.org/1999/xlink" x="0px" y="0px"
	 viewBox="0 0 680 280" style="enable-background:new 0 0 680 280;" xml:space="preserve">
<style type="text/css">
	.st0{fill:#8087D7;}
	.st1{fill:#8B93EF;}
	.st2{fill:#A2A8EF;}
	.st3{display:none;}
	.st4{display:inline;fill:#6A96D1;}
	.st5{display:inline;fill:#74A8EC;}
	.st6{display:inline;fill:#89B4EB;}
	.st7{display:inline;fill:#DC8665;}
	.st8{display:inline;fill:#F7936D;}
	.st9{display:inline;fill:#F4A689;}
</style>
<g id="Lager_1">
	<path class="st0" d="M338.3,6.1c106.3,0,212.7,0.1,319-0.1c10.6,0,20.3,6.3,20.2,20.3c-0.2,76.2-0.1,152.3-0.1,228.5
		c0,10.3-4.5,17.2-12.6,19.6c-1.2,0.4-2.6,0.6-3.9,0.6c-211.7,0-423.3,0.1-635-0.1c-6.8,0-14.7,0.3-19.4-6.5c-2-2.8-3.9-6.5-3.9-9.7
		C2.4,179.6,2.5,100.4,2.4,21.3c0-9,6.2-15.1,15.4-15.2c17.2,0,34.3,0,51.5,0C159,6.1,248.7,6.1,338.3,6.1z M671.4,213.1
		c0-38.3,0-76.6,0-114.9c0-22.1,0-44.3,0-66.4c0-9.6-5.4-17.6-12.7-18.5c-5.4-0.7-10.9-1.1-16.3-1.1c-45.3-0.1-90.6,0-135.9,0
		c-160.5,0-320.9,0-481.4,0c-0.7,0-1.3,0-2,0c-8.1,0.6-14.6,7.4-14.6,15.5c0,16.2,0,32.3,0,48.5c0,59.3,0,118.6,0,177.9
		c0,10.1,6,16.1,16.1,16.1c47.3,0,94.6,0,141.9,0c162.4,0,324.7,0,487.1,0c10.1,0,17.8-7.7,17.9-18.1
		C671.5,239,671.4,226.1,671.4,213.1z"/>
	<path class="st1" d="M8.5,76.1c0-16.2,0-32.3,0-48.5c0-8.1,6.5-14.9,14.6-15.5c0.7-0.1,1.3,0,2,0c160.5,0,320.9,0,481.4,0
		c2.3,16.4,9.4,30.8,19.9,43.3C540.3,71.9,559,80.6,579.4,86c12.3,3.3,21.3,9.6,24.4,22.7c2,8.5,4.1,17.1,6.7,25.5
		c3.4,11.2,6.2,22.8,11.2,33.3c6.7,14.1,17.5,25.4,29.8,35c5.9,4.6,11.8,9.9,19.9,10.5c0,13,0.1,26,0,39
		c-0.1,10.4-7.7,18.1-17.9,18.1c-162.4,0-324.7,0-487.1,0c-1.6-3.4-2.8-7-4.7-10.3c-6.2-10.7-13.7-20.4-23.7-27.9
		c-14.6-10.9-31.8-13.4-49.3-14.9c-8-0.7-16.2-0.9-22.5-7.5c-6.9-7.3-10.5-16.4-13-25.5c-4.1-14.6-6.9-29.6-9.7-44.6
		c-3.7-19.8-9.7-38.6-24-53.7C16.2,82.3,12.2,79.4,8.5,76.1z"/>
	<path class="st2" d="M671.4,213.1c-8.1-0.7-13.9-5.9-19.9-10.5c-12.3-9.6-23.1-20.9-29.8-35c-5-10.5-7.8-22.1-11.2-33.3
		c-2.6-8.4-4.7-16.9-6.7-25.5c-3.1-13.1-12.1-19.4-24.4-22.7c-20.4-5.4-39.1-14.1-53.1-30.7c-10.5-12.5-17.6-26.9-19.9-43.3
		c45.3,0,90.6-0.1,135.9,0c5.5,0,10.9,0.4,16.3,1.1c7.4,0.9,12.7,8.9,12.7,18.5c0,22.1,0,44.3,0,66.4
		C671.4,136.5,671.4,174.8,671.4,213.1z"/>
	<path class="st2" d="M8.5,76.1c3.7,3.2,7.7,6.2,11.1,9.7c14.3,15,20.2,33.8,24,53.7c2.8,14.9,5.6,29.9,9.7,44.6
		c2.6,9.1,6.1,18.2,13,25.5c6.3,6.7,14.5,6.8,22.5,7.5c17.5,1.5,34.7,4,49.3,14.9c10,7.5,17.5,17.2,23.7,27.9
		c1.9,3.2,3.2,6.8,4.7,10.3c-47.3,0-94.6,0-141.9,0c-10.1,0-16.1-6-16.1-16.1C8.4,194.7,8.5,135.4,8.5,76.1z"/>
</g>
<g id="Lager_1_kopia" class="st3">
	<path class="st4" d="M338.3,6.1c106.3,0,212.7,0.1,319-0.1c10.6,0,20.3,6.3,20.2,20.3c-0.2,76.2-0.1,152.3-0.1,228.5
		c0,10.3-4.5,17.2-12.6,19.6c-1.2,0.4-2.6,0.6-3.9,0.6c-211.7,0-423.3,0.1-635-0.1c-6.8,0-14.7,0.3-19.4-6.5c-2-2.8-3.9-6.5-3.9-9.7
		C2.4,179.6,2.5,100.4,2.4,21.3c0-9,6.2-15.1,15.4-15.2c17.2,0,34.3,0,51.5,0C159,6.1,248.7,6.1,338.3,6.1z M671.4,213.1
		c0-38.3,0-76.6,0-114.9c0-22.1,0-44.3,0-66.4c0-9.6-5.4-17.6-12.7-18.5c-5.4-0.7-10.9-1.1-16.3-1.1c-45.3-0.1-90.6,0-135.9,0
		c-160.5,0-320.9,0-481.4,0c-0.7,0-1.3,0-2,0c-8.1,0.6-14.6,7.4-14.6,15.5c0,16.2,0,32.3,0,48.5c0,59.3,0,118.6,0,177.9
		c0,10.1,6,16.1,16.1,16.1c47.3,0,94.6,0,141.9,0c162.4,0,324.7,0,487.1,0c10.1,0,17.8-7.7,17.9-18.1
		C671.5,239,671.4,226.1,671.4,213.1z"/>
	<path class="st5" d="M8.5,76.1c0-16.2,0-32.3,0-48.5c0-8.1,6.5-14.9,14.6-15.5c0.7-0.1,1.3,0,2,0c160.5,0,320.9,0,481.4,0
		c2.3,16.4,9.4,30.8,19.9,43.3C540.3,71.9,559,80.6,579.4,86c12.3,3.3,21.3,9.6,24.4,22.7c2,8.5,4.1,17.1,6.7,25.5
		c3.4,11.2,6.2,22.8,11.2,33.3c6.7,14.1,17.5,25.4,29.8,35c5.9,4.6,11.8,9.9,19.9,10.5c0,13,0.1,26,0,39
		c-0.1,10.4-7.7,18.1-17.9,18.1c-162.4,0-324.7,0-487.1,0c-1.6-3.4-2.8-7-4.7-10.3c-6.2-10.7-13.7-20.4-23.7-27.9
		c-14.6-10.9-31.8-13.4-49.3-14.9c-8-0.7-16.2-0.9-22.5-7.5c-6.9-7.3-10.5-16.4-13-25.5c-4.1-14.6-6.9-29.6-9.7-44.6
		c-3.7-19.8-9.7-38.6-24-53.7C16.2,82.3,12.2,79.4,8.5,76.1z"/>
	<path class="st6" d="M671.4,213.1c-8.1-0.7-13.9-5.9-19.9-10.5c-12.3-9.6-23.1-20.9-29.8-35c-5-10.5-7.8-22.1-11.2-33.3
		c-2.6-8.4-4.7-16.9-6.7-25.5c-3.1-13.1-12.1-19.4-24.4-22.7c-20.4-5.4-39.1-14.1-53.1-30.7c-10.5-12.5-17.6-26.9-19.9-43.3
		c45.3,0,90.6-0.1,135.9,0c5.5,0,10.9,0.4,16.3,1.1c7.4,0.9,12.7,8.9,12.7,18.5c0,22.1,0,44.3,0,66.4
		C671.4,136.5,671.4,174.8,671.4,213.1z"/>
	<path class="st6" d="M8.5,76.1c3.7,3.2,7.7,6.2,11.1,9.7c14.3,15,20.2,33.8,24,53.7c2.8,14.9,5.6,29.9,9.7,44.6
		c2.6,9.1,6.1,18.2,13,25.5c6.3,6.7,14.5,6.8,22.5,7.5c17.5,1.5,34.7,4,49.3,14.9c10,7.5,17.5,17.2,23.7,27.9
		c1.9,3.2,3.2,6.8,4.7,10.3c-47.3,0-94.6,0-141.9,0c-10.1,0-16.1-6-16.1-16.1C8.4,194.7,8.5,135.4,8.5,76.1z"/>
</g>
<g id="Lager_1_kopia_2" class="st3">
	<path class="st7" d="M338.3,6.1c106.3,0,212.7,0.1,319-0.1c10.6,0,20.3,6.3,20.2,20.3c-0.2,76.2-0.1,152.3-0.1,228.5
		c0,10.3-4.5,17.2-12.6,19.6c-1.2,0.4-2.6,0.6-3.9,0.6c-211.7,0-423.3,0.1-635-0.1c-6.8,0-14.7,0.3-19.4-6.5c-2-2.8-3.9-6.5-3.9-9.7
		C2.4,179.6,2.5,100.4,2.4,21.3c0-9,6.2-15.1,15.4-15.2c17.2,0,34.3,0,51.5,0C159,6.1,248.7,6.1,338.3,6.1z M671.4,213.1
		c0-38.3,0-76.6,0-114.9c0-22.1,0-44.3,0-66.4c0-9.6-5.4-17.6-12.7-18.5c-5.4-0.7-10.9-1.1-16.3-1.1c-45.3-0.1-90.6,0-135.9,0
		c-160.5,0-320.9,0-481.4,0c-0.7,0-1.3,0-2,0c-8.1,0.6-14.6,7.4-14.6,15.5c0,16.2,0,32.3,0,48.5c0,59.3,0,118.6,0,177.9
		c0,10.1,6,16.1,16.1,16.1c47.3,0,94.6,0,141.9,0c162.4,0,324.7,0,487.1,0c10.1,0,17.8-7.7,17.9-18.1
		C671.5,239,671.4,226.1,671.4,213.1z"/>
	<path class="st8" d="M8.5,76.1c0-16.2,0-32.3,0-48.5c0-8.1,6.5-14.9,14.6-15.5c0.7-0.1,1.3,0,2,0c160.5,0,320.9,0,481.4,0
		c2.3,16.4,9.4,30.8,19.9,43.3C540.3,71.9,559,80.6,579.4,86c12.3,3.3,21.3,9.6,24.4,22.7c2,8.5,4.1,17.1,6.7,25.5
		c3.4,11.2,6.2,22.8,11.2,33.3c6.7,14.1,17.5,25.4,29.8,35c5.9,4.6,11.8,9.9,19.9,10.5c0,13,0.1,26,0,39
		c-0.1,10.4-7.7,18.1-17.9,18.1c-162.4,0-324.7,0-487.1,0c-1.6-3.4-2.8-7-4.7-10.3c-6.2-10.7-13.7-20.4-23.7-27.9
		c-14.6-10.9-31.8-13.4-49.3-14.9c-8-0.7-16.2-0.9-22.5-7.5c-6.9-7.3-10.5-16.4-13-25.5c-4.1-14.6-6.9-29.6-9.7-44.6
		c-3.7-19.8-9.7-38.6-24-53.7C16.2,82.3,12.2,79.4,8.5,76.1z"/>
	<path class="st9" d="M671.4,213.1c-8.1-0.7-13.9-5.9-19.9-10.5c-12.3-9.6-23.1-20.9-29.8-35c-5-10.5-7.8-22.1-11.2-33.3
		c-2.6-8.4-4.7-16.9-6.7-25.5c-3.1-13.1-12.1-19.4-24.4-22.7c-20.4-5.4-39.1-14.1-53.1-30.7c-10.5-12.5-17.6-26.9-19.9-43.3
		c45.3,0,90.6-0.1,135.9,0c5.5,0,10.9,0.4,16.3,1.1c7.4,0.9,12.7,8.9,12.7,18.5c0,22.1,0,44.3,0,66.4
		C671.4,136.5,671.4,174.8,671.4,213.1z"/>
	<path class="st9" d="M8.5,76.1c3.7,3.2,7.7,6.2,11.1,9.7c14.3,15,20.2,33.8,24,53.7c2.8,14.9,5.6,29.9,9.7,44.6
		c2.6,9.1,6.1,18.2,13,25.5c6.3,6.7,14.5,6.8,22.5,7.5c17.5,1.5,34.7,4,49.3,14.9c10,7.5,17.5,17.2,23.7,27.9
		c1.9,3.2,3.2,6.8,4.7,10.3c-47.3,0-94.6,0-141.9,0c-10.1,0-16.1-6-16.1-16.1C8.4,194.7,8.5,135.4,8.5,76.1z"/>
</g>
</svg>
