<?xml version="1.0" encoding="utf-8"?>
<!-- Generator: Adobe Illustrator 27.0.1, SVG Export Plug-In . SVG Version: 6.00 Build 0)  -->
<svg version="1.1" xmlns="http://www.w3.org/2000/svg" xmlns:xlink="http://www.w3.org/1999/xlink" x="0px" y="0px"
	 viewBox="0 0 1200 1800" style="enable-background:new 0 0 1200 1800;" xml:space="preserve">
<style type="text/css">
	.st0{display:none;}
	.st1{fill:#473341;stroke:#473341;stroke-miterlimit:10;}
	.st2{fill:#5F4356;stroke:#5F4356;stroke-miterlimit:10;}
	.st3{fill:#684C61;stroke:#684C61;stroke-miterlimit:10;}
	.st4{fill:#C49778;stroke:#C49778;stroke-miterlimit:10;}
	.st5{fill:#D39E7A;stroke:#D39E7A;stroke-miterlimit:10;}
	.st6{fill:#3C4A66;stroke:#3C4A66;stroke-miterlimit:10;}
	.st7{fill:#313D5B;stroke:#313D5B;stroke-miterlimit:10;}
	.st8{display:none;fill:#D8A988;stroke:#D8A988;stroke-miterlimit:10;}
	.st9{fill:#D8A988;stroke:#D8A988;stroke-miterlimit:10;}
	.st10{fill:#442019;stroke:#442019;stroke-miterlimit:10;}
	.st11{fill:#75566C;stroke:#75566C;stroke-miterlimit:10;}
	.st12{display:inline;fill:#D7BEC3;stroke:#EAD6DA;stroke-width:7;stroke-miterlimit:10;}
	.st13{display:inline;fill:#BAB7C9;stroke:#D7BEC3;stroke-width:7;stroke-miterlimit:10;}
	.st14{display:inline;fill:#A56979;stroke:#BAB7C9;stroke-width:7;stroke-miterlimit:10;}
	.st15{display:inline;fill:#6F6B8E;stroke:#A56979;stroke-width:7;stroke-miterlimit:10;}
	.st16{fill:#6F6B8E;stroke:#6F6B8E;stroke-miterlimit:10;}
	.st17{fill:#424D76;stroke:#6F6B8E;stroke-width:7;stroke-miterlimit:10;}
	.st18{font-family:'BigNoodleTitling';}
	.st19{font-size:649.6527px;}
	.st20{display:inline;}
	.st21{fill:#BAB7C9;stroke:#D7BEC3;stroke-width:7;stroke-miterlimit:10;}
	.st22{display:inline;fill:#424D76;stroke:#6F6B8E;stroke-width:7;stroke-miterlimit:10;}
</style>
<g id="Lager_1" class="st0">
	
		<image style="display:inline;overflow:visible;" width="3456" height="5184" xlink:href="../../../Downloads/valentin-salja-0aX51h4WvAk-unsplash.jpg"  transform="matrix(0.5508 0 0 0.5508 -418 -902)">
	</image>
</g>
<g id="Lager_2">
	<path id="left_arm" class="st1" d="M457.5,1412.5c8.9-125,12.3-188,36-251c29.7-78.9,69.9-129.9,53-147c-14.4-14.6-62.1,4.2-94,30
		c-20.4,16.4-42,41.8-73,142c-12.1,39.3-18.2,65.6-21.8,86.8c-5.7,33.7-8.6,59.5-10,75.4c-12.5,145.6-18.2,219.1,10.7,255.8
		c14.4,18.2,44.6,45.2,67,38C455.4,1632.9,447,1560.3,457.5,1412.5z"/>
	<path id="kropp" class="st2" d="M923.5,1764.5c17.7-19,16.4-42.8,16-89c-1.4-156.3-2.2-234.5,20-295c11.3-31,21.7-44.9,22-75
		c0.6-59-38.3-75.9-41-120c-5-82,123.1-127.8,109-163c-11-27.6-101.8-29.4-170,3c-32.1,15.2-28.6,23.5-60,37
		c-79.1,34.1-158.2,6.2-164,4c-63.4-23.5-66.5-60.6-102-59c-52.6,2.4-95,86.1-112,146c-24.5,86.2,10.2,100.2,6,270
		c-1.6,63.9-2.9,117.5-16,190c-14.5,80.4-26.2,88.3-17,110c25.8,60.7,127.2,23.1,390,59C839.7,1787.3,894.5,1795.7,923.5,1764.5z"/>
	<path id="luva" class="st3" d="M860.5,954.5c14.7,3.8,25,64.9-5,101c-17.6,21.2-43.1,26.5-65,31c-26.3,5.4-35.1,1.1-100-4
		c-67.5-5.3-80-2.5-98-16c-3-2.2-33.3-25.8-31-59c1.7-25,20.9-40.6,40-56c21.7-17.6,55.8-35.2,65-26c3.1,3.1,2.4,8.2,2,12
		c-0.1,1.3,3.9,23.9,12,69c12.5,69.5,14.2,76.2,19,77c9.1,1.6,12.1-21.1,37-41c22.7-18.2,35.7-11.7,62-26
		C842.7,992.4,848,951.2,860.5,954.5z"/>
	<path id="right_udnerarm" class="st1" d="M1097.5,1233.5c-25.5,89.1-106.6,161.4-138,147c-10-4.6-9.3-15.2-20-69
		c-21.4-107.3-38.1-133.8-21-153c16.2-18.3,37.1-0.9,76-19c53-24.7,58.7-77.6,78-75C1096.5,1067.7,1120.3,1153.7,1097.5,1233.5z"/>
	<path id="hals" class="st4" d="M844.5,793.5c31.9,8.4,47.9,149-13,204c-18.6,16.8-32.6,14.9-82,52c-25.3,19-35,29.5-49,27
		c-29.1-5.1-40.5-59.6-41-62c-3.6-17.8-1.6-31.1,2-55c2.8-18.6,8.2-54.7,20-56c8.8-1,10.9,18.5,22.5,23
		C740.2,940.4,808.5,784,844.5,793.5z"/>
	<path id="face" class="st5" d="M856.5,788.5c20.3-23.6,25.9-49.9,28-60c12.5-59.3-18.4-150.5-86-166c-48.4-11.1-103.6,16.2-126,53
		c-16.6,27.2-9.6,50.1-35,72c-20.6,17.8-47.5,21.7-47,34c0.4,9.6,17.2,14.5,16,26c-0.5,4.5-3.2,5.5-7,11c-11,16-2.7,28.7-11,46
		c-4.8,10-8.5,7.5-18,20c-3.5,4.6-20.6,27.9-18,48c0.9,6.7,4.8,20.5,66,53c44.5,23.7,66.7,35.5,84,33c43-6.2,70.2-57.5,78-72
		c13.5-25.3,9.3-33.1,25-53C823.7,810.3,838.2,809.7,856.5,788.5z"/>
	<path id="skägg" class="st6" d="M844.5,793.5c-5.6-7.8-41.3,1.4-67,22c-18.3,14.7-18.9,25-34,29c-19.1,5.1-38.8-6-53-14
		c-7.7-4.4-18.3-10.3-28-22c-13.9-16.8-9.1-24.9-21-39c-15.7-18.6-42.3-26.6-49-20c-0.9,0.8-1.6,4.9-3,13c-1.8,10.3-2.7,15.4-2,17
		c3.2,7.3,14.6,3.5,30,11c4.1,2,16.6,8.1,22,21c4.6,11.1,4.3,27.8-5,34c-6.2,4.1-14,2-25-1c-6.7-1.8-22.5-7.1-22-12
		c0.6-5.6,21.3-3.8,23-11c1.7-7-15-21.7-29-19c-4.3,0.8-10.1,3.6-24,30c-14.2,27-21.3,40.5-19,50c3.5,14.6,21.7,23.3,58,40
		c9.2,4.2,28.3,12.6,58,22c35.2,11.1,53.2,16.6,75,16c19.5-0.6,41.4-1.2,55-16c15.8-17.2,3.4-35.4,12-70
		C809.2,823.7,851,802.6,844.5,793.5z"/>
	<path id="hair" class="st7" d="M1030.5,729.5c-10.7,58.5-63.7,105.3-83,97c-16.9-7.2,4.7-51-23-107c-10.1-20.4-13-14.6-50-64
		c-41.7-55.7-39.1-64.5-58-74c-33.5-16.9-77.6-7.4-80-20c-0.8-4.3,3.8-7.6,2-15c-2-8.3-9.1-9.4-9-15c0.2-7.9,14.7-13.7,18-15
		c10.7-4.3,12.9-1,21-5c10.9-5.4,9.6-12.8,19-16c8.4-2.8,11.5,2.4,22,1c12.9-1.8,16-10.8,24-13c16.8-4.6,36.6,26.1,55,47
		c40.7,46,63.5,30.9,99,69C992.2,604.6,1043.1,660.8,1030.5,729.5z"/>
	<path id="hand" class="st8" d="M974.5,581.5c-0.7-3.9-4.1-14.9-11-37c-2.6-8.2-3.6-11.4-7-14c-7.4-5.7-14.4,0.2-24-5
		c-8.6-4.7-6.7-11.6-15-15c-6.9-2.9-9.1,1.6-21,1c-14.7-0.7-20.3-7.9-27-4c-4.2,2.4-2.9,5.8-8,9c-5.7,3.6-9.8,1-16,3
		c-9.9,3.1-14.5,14.4-16,18c-4.5,10.9-1.8,19.1-1,31c1,14-1.6,18.1-6,44c-7.8,46.6-11.8,71.7-1,97c1.2,2.7,11.2,25.9,22,25
		c6.5-0.6,7.8-9.4,14-16c19.8-21,60.4,11,89-5c26.3-14.7,28.4-61.9,30-97C977.3,599.5,975.4,586.8,974.5,581.5z"/>
	<path id="hand_00000145057953053224587080000004164979863996575881_" class="st9" d="M967.5,578.5c0-6.6,0.1-19-4-34
		c-2.6-9.6-4.8-12.3-7-14c-6.8-5.2-12.7-0.5-24-5c-9.9-4-8.7-9.1-17-11c-9.6-2.1-12.5,4.4-23,2c-7.5-1.7-8.7-5.7-15-5
		c-4,0.4-8.7,2.6-12,6c-3.2,3.2-2.7,4.9-5,6c-4.8,2.2-9-4.3-15-4c-3.5,0.2-6,2.6-17,20c-10.7,17-12.9,22.2-13,29c0,3.8-0.1,8.7,3,11
		c5.8,4.3,17-4.2,21,0c1.7,1.8,1.2,4.7,1,6c-2.3,14-1.8,28.5-6,42c-6.2,19.9-4.6,37.4-3,54c1.9,19.6,8.8,51.1,20,52
		c6.9,0.6,7.8-11,18-16c26.8-13.1,72.3,42.2,85,33c6.4-4.6-4.7-18.6-5-47c-0.4-36,17.1-41.5,19-86
		C969.1,604.1,967.5,605.8,967.5,578.5z"/>
	<path class="st10" d="M860.5,786.5c-1,1.6-41.1-26-82-46c-12.5-6.1-23.3-15.4-36-21c-7.1-3.1-15.4-6.2-16-12c-0.4-3.8,2.5-8.3,6-9
		c4.9-1,9.1,5.8,15,12c7.9,8.4,11.1,7.8,35,22c10.7,6.4,18.5,11.6,34,22C830.1,763.6,861.4,785.1,860.5,786.5z"/>
	<path class="st10" d="M662.5,671.5c-4.7,6.4-13.5,8.9-15,7c-1.6-2,3.6-6.7,6-18c1.1-5.3,2.6-12.3-1-16c-3.7-3.8-11.4-2.6-16-1
		c-19.2,6.9-28.9,38.2-27,53c0.2,1.5,1.1,7.7,0,8c-0.9,0.3-2.8-3.5-3-4c-4.4-8.9-2.5-24.8,6-38c4.5-7.1,7.9-8.6,9-15
		c1.1-6.5-1.4-11.1,1-13c2.1-1.6,5.2,0.9,12,3c12.7,3.9,16.6-0.5,23,4c6.3,4.4,7.7,12.2,8,14C665.9,657.7,667.2,665.2,662.5,671.5z"
		/>
	<path class="st10" d="M718.5,706.5c2.3,2.4,5.8,2,6,2c4.6-0.5,8.1-5.7,8-10c-0.1-3.8-3.4-6-6-9c-9.8-11.4-14.8-17.1-18-19
		c-13.6-7.9-22.4,0.9-37-8c-2.5-1.5-6.3-4.3-8-3c-1.7,1.3-0.3,6.2,1,9c1.6,3.6,3.1,4.1,4,6c2.7,5.5-4.8,11.6-10,23
		c-1.4,3.1-6.3,14.4-5,28c0.6,6.2,1.2,12.8,6,18c8.9,9.6,26.3,7.9,37,3c7.1-3.2,12-9.8,22-23c3-3.9,6.2-8.7,6-15
		c-0.1-3.1-1.1-7.8-3-8c-2.9-0.4-4.4,10.9-13,24c-4.4,6.7-9.5,14.4-19,18c-1.6,0.6-13.6,5.1-22-1c-9.2-6.6-7.8-21.1-7-29
		c0.4-3.9,2.9-29.6,21-37c1.8-0.7,8.8-3.4,17-1c7.6,2.2,15.9,8.6,17,16c0.1,0.9,0.2,2.1,1,9C716.9,703.2,717.2,705.1,718.5,706.5z"
		/>
	<path id="right_forearm" class="st11" d="M1077.5,1043.5c28.6,63.5,28.7,73.6,28,81c-5,49.4-61,102.1-120,98
		c-49.1-3.4-79.2-44.6-89-58c-7.3-10-23-34.1-35-117c-6.7-46.2-7-74.8-9-122c-6.8-159.3-18.1-189.9,5-207c25.7-19.1,75.2-7.4,99,18
		c15.6,16.6,13.3,31.7,24,76c10.7,44.5,24.1,75.5,42,117C1041.5,973.4,1048.6,979.5,1077.5,1043.5z"/>
	<g class="st0">
		<path class="st12" d="M187.2,434.1v-78.6c0-9.5,1.1-16.9,3.4-22.1c2.3-5.2,5.2-9.3,8.7-12.3c3.6-3,9.9-6.9,18.9-11.7l67-33.1
			c7.8-4.3,12.6-8.3,14.6-12c1.9-3.7,2.9-9.8,2.9-18.5v-66.9c0-19.1-13.6-28.6-40.8-28.6h-36c-25.9,0-38.9,9.5-38.9,28.6v33.8H94
			v-39c0-53.3,37.2-79.9,111.7-79.9h79.7c73.8,0,110.8,26.6,110.8,79.9v94.8c0,9.5-1.1,16.9-3.4,22.1c-2.3,5.2-5.8,9.5-10.7,13
			c-4.9,3.5-11.2,7.1-18.9,11L298,348.3c-7.8,3.9-12.6,7.7-14.6,11.4c-1.9,3.7-2.9,9.9-2.9,18.5v55.9H187.2z M285.4,480.9v79.3
			h-99.1v-79.3H285.4z"/>
	</g>
	<g class="st0">
		<path class="st13" d="M207.2,414.1v-78.6c0-9.5,1.1-16.9,3.4-22.1c2.3-5.2,5.2-9.3,8.7-12.3c3.6-3,9.9-6.9,18.9-11.7l67-33.1
			c7.8-4.3,12.6-8.3,14.6-12c1.9-3.7,2.9-9.8,2.9-18.5v-66.9c0-19.1-13.6-28.6-40.8-28.6h-36c-25.9,0-38.9,9.5-38.9,28.6v33.8H114
			v-39c0-53.3,37.2-79.9,111.7-79.9h79.7c73.8,0,110.8,26.6,110.8,79.9v94.8c0,9.5-1.1,16.9-3.4,22.1c-2.3,5.2-5.8,9.5-10.7,13
			c-4.9,3.5-11.2,7.1-18.9,11L318,328.3c-7.8,3.9-12.6,7.7-14.6,11.4c-1.9,3.7-2.9,9.9-2.9,18.5v55.9H207.2z M305.4,460.9v79.3
			h-99.1v-79.3H305.4z"/>
	</g>
	<g class="st0">
		<path class="st14" d="M227.2,394.1v-78.6c0-9.5,1.1-16.9,3.4-22.1c2.3-5.2,5.2-9.3,8.7-12.3c3.6-3,9.9-6.9,18.9-11.7l67-33.1
			c7.8-4.3,12.6-8.3,14.6-12c1.9-3.7,2.9-9.8,2.9-18.5v-66.9c0-19.1-13.6-28.6-40.8-28.6h-36c-25.9,0-38.9,9.5-38.9,28.6v33.8H134
			v-39c0-53.3,37.2-79.9,111.7-79.9h79.7c73.8,0,110.8,26.6,110.8,79.9v94.8c0,9.5-1.1,16.9-3.4,22.1c-2.3,5.2-5.8,9.5-10.7,13
			c-4.9,3.5-11.2,7.1-18.9,11L338,308.3c-7.8,3.9-12.6,7.7-14.6,11.4c-1.9,3.7-2.9,9.9-2.9,18.5v55.9H227.2z M325.4,440.9v79.3
			h-99.1v-79.3H325.4z"/>
	</g>
	<g class="st0">
		<path class="st15" d="M247.2,374.1v-78.6c0-9.5,1.1-16.9,3.4-22.1c2.3-5.2,5.2-9.3,8.7-12.3c3.6-3,9.9-6.9,18.9-11.7l67-33.1
			c7.8-4.3,12.6-8.3,14.6-12c1.9-3.7,2.9-9.8,2.9-18.5v-66.9c0-19.1-13.6-28.6-40.8-28.6h-36c-25.9,0-38.9,9.5-38.9,28.6v33.8H154
			v-39c0-53.3,37.2-79.9,111.7-79.9h79.7c73.8,0,110.8,26.6,110.8,79.9v94.8c0,9.5-1.1,16.9-3.4,22.1c-2.3,5.2-5.8,9.5-10.7,13
			c-4.9,3.5-11.2,7.1-18.9,11L358,288.3c-7.8,3.9-12.6,7.7-14.6,11.4c-1.9,3.7-2.9,9.9-2.9,18.5v55.9H247.2z M345.4,420.9v79.3
			h-99.1v-79.3H345.4z"/>
	</g>
	<g>
		<path class="st16" d="M247.2,374.1v-78.6c0-9.5,1.1-16.9,3.4-22.1c2.3-5.2,5.2-9.3,8.7-12.3c3.6-3,9.9-6.9,18.9-11.7l67-33.1
			c7.8-4.3,12.6-8.3,14.6-12c1.9-3.7,2.9-9.8,2.9-18.5v-66.9c0-19.1-13.6-28.6-40.8-28.6h-36c-25.9,0-38.9,9.5-38.9,28.6v33.8H154
			v-39c0-53.3,37.2-79.9,111.7-79.9h79.7c73.8,0,110.8,26.6,110.8,79.9v94.8c0,9.5-1.1,16.9-3.4,22.1c-2.3,5.2-5.8,9.5-10.7,13
			c-4.9,3.5-11.2,7.1-18.9,11L358,288.3c-7.8,3.9-12.6,7.7-14.6,11.4c-1.9,3.7-2.9,9.9-2.9,18.5v55.9H247.2z M345.4,420.9v79.3
			h-99.1v-79.3H345.4z"/>
	</g>
	<g>
		<path class="st17" d="M267.2,354.1v-78.6c0-9.5,1.1-16.9,3.4-22.1c2.3-5.2,5.2-9.3,8.7-12.3c3.6-3,9.9-6.9,18.9-11.7l67-33.1
			c7.8-4.3,12.6-8.3,14.6-12c1.9-3.7,2.9-9.8,2.9-18.5V98.8c0-19.1-13.6-28.6-40.8-28.6h-36c-25.9,0-38.9,9.5-38.9,28.6v33.8H174
			v-39c0-53.3,37.2-79.9,111.7-79.9h79.7c73.8,0,110.8,26.6,110.8,79.9v94.8c0,9.5-1.1,16.9-3.4,22.1c-2.3,5.2-5.8,9.5-10.7,13
			c-4.9,3.5-11.2,7.1-18.9,11L378,268.3c-7.8,3.9-12.6,7.7-14.6,11.4c-1.9,3.7-2.9,9.9-2.9,18.5v55.9H267.2z M365.4,400.9v79.3
			h-99.1v-79.3H365.4z"/>
	</g>
</g>
<g id="Lager_3" class="st0">
	<text transform="matrix(1.4956 0 0 1 -79.3252 593.1143)" class="st12 st18 st19">?</text>
	<g class="st20">
		<text transform="matrix(1.4956 0 0 1 -59.3252 573.1143)" class="st21 st18 st19">?</text>
	</g>
	<text transform="matrix(1.4956 0 0 1 -39.3252 553.1143)" class="st14 st18 st19">?</text>
	<text transform="matrix(1.4956 0 0 1 -19.3252 533.1143)" class="st15 st18 st19">?</text>
	<text transform="matrix(1.4956 0 0 1 0.6748 513.1143)" class="st22 st18 st19">?</text>
</g>
</svg>
