<?xml version="1.0" encoding="utf-8"?>
<!-- Generator: Adobe Illustrator 27.0.1, SVG Export Plug-In . SVG Version: 6.00 Build 0)  -->
<svg version="1.1" id="Lager_1" xmlns="http://www.w3.org/2000/svg" xmlns:xlink="http://www.w3.org/1999/xlink" x="0px" y="0px"
	 viewBox="0 0 1920 100" style="enable-background:new 0 0 1920 100;" xml:space="preserve">
<style type="text/css">
	.st0{fill:#2D2B3F;}
</style>
<path class="st0" d="M0,49c17.3-5.4,34.6-10.9,51.9-16.3C105.4,16.1,160.2,7.5,216.1,5.9c63.8-1.8,126.6,5.5,189.2,17.5
	c65.1,12.5,130.7,22.7,197,26c45.1,2.2,90.3,3.2,135.4,2.4c56.9-1,113.9-4.3,170.8-6.8c25-1.1,49.9-2.9,74.9-3.8
	c53-1.8,105.4,3.7,157.4,14.1c50.3,10,100.7,19.6,151.3,28c57.1,9.5,114.8,13.9,172.8,11.6c40.3-1.6,80.3-6.6,120.1-13.4
	c62.7-10.8,125.8-16.9,189.5-16.3c42.9,0.5,85.6,3.7,127.4,13.9c6.1,1.5,12.1,3.3,18.1,4.9c0,6,0,12,0,18c-640,0-1280,0-1920,0
	C0,84.3,0,66.7,0,49z"/>
</svg>
