<?xml version="1.0" encoding="utf-8"?>
<!-- Generator: Adobe Illustrator 27.0.1, SVG Export Plug-In . SVG Version: 6.00 Build 0)  -->
<svg version="1.1" id="Lager_1" xmlns="http://www.w3.org/2000/svg" xmlns:xlink="http://www.w3.org/1999/xlink" x="0px" y="0px"
	 viewBox="0 0 1920 100" style="enable-background:new 0 0 1920 100;" xml:space="preserve">
<style type="text/css">
	.st0{fill:#F3E3E1;}
</style>
<path class="st0" d="M-0.1,65.1c8.6,2.5,17.2,4.8,25.8,7.4C50,79.8,74.6,85.7,99.8,89.1c18.2,2.5,36.3,5.3,54.5,7.7
	c5.6,0.8,11.2,1,16.9,1.1c20.1,0.4,40.3,1.6,60.3,0.8c20.6-0.8,41.2-3.3,61.7-5.7c20.2-2.3,40.3-5.2,60.5-8.1
	c30.7-4.4,61.5-9,92.2-13.8c27.1-4.2,54.2-8.9,81.3-13.1c16.2-2.5,32.4-4.9,48.6-6.8c16.9-2,33.9-3.4,50.8-5.2
	c15.8-1.6,31.6-3.3,47.4-4.9c4.9-0.5,9.9-0.9,14.9-1c22.9-0.7,45.8-1.8,68.7-1.9c17.6-0.1,35.2,0.8,52.7,2c19.5,1.2,38.9,3,58.3,5
	c22.7,2.3,45.3,5.1,68,7.8c20.8,2.6,41.7,5.1,62.4,8.2c11.9,1.7,23.7,4.5,35.6,6.5c16.6,2.9,33.3,5.6,49.9,8.3
	c14.8,2.4,29.7,4.8,44.6,6.8c12.6,1.7,25.3,2.8,38,4.2c14.5,1.6,28.9,3.4,43.4,4.8c8.9,0.9,17.8,1.8,26.7,2.1
	c31.2,0.8,62.5,1.9,93.7,1.9c19.4,0,38.8-1.1,58.1-3c32.9-3.3,65.7-7.3,98.1-14.6c24.4-5.5,48.8-10.9,73.2-16.4
	C1606.2,51.6,1652,41,1698,31.4c20-4.2,40.5-6.6,60.8-9.3c19.3-2.6,38.7-4.9,58.1-6.9c10.4-1.1,20.8-1.5,31.2-2.1c12,0,24,0,36,0
	c12,0.7,24,1.3,36,2c0,28.3,0,56.6,0,84.9c-640,0-1280,0-1920,0C-0.1,88.4-0.1,76.7-0.1,65.1z"/>
</svg>
